<svg xmlns="http://www.w3.org/2000/svg" xmlns:xlink="http://www.w3.org/1999/xlink" width="144.417" height="120.483" viewBox="0 0 144.417 120.483">
  <defs>
    <linearGradient id="linear-gradient" x1="0.5" x2="0.5" y2="1" gradientUnits="objectBoundingBox">
      <stop offset="0" stop-color="#9ceeff"/>
      <stop offset="1" stop-color="#6454f0"/>
    </linearGradient>
    <clipPath id="clip-path">
      <ellipse id="Ellipse_84" data-name="Ellipse 84" cx="48.225" cy="48.225" rx="48.225" ry="48.225" transform="translate(0 0)" stroke="#707070" stroke-width="1" fill="url(#linear-gradient)"/>
    </clipPath>
  </defs>
  <g id="Group_60" data-name="Group 60" transform="translate(-796 -363.324)">
    <g id="Mask_Group_14" data-name="Mask Group 14" transform="translate(796 387.358)" clip-path="url(#clip-path)">
      <path id="Path_189" data-name="Path 189" d="M985,1004.38s5.57,12.882,22.522,0,29.033,4.784,44.909,4.784,16.111-8.2,28.094-10.414,20.865,5.63,20.865,5.63v78.663H987.57Z" transform="translate(-995.727 -986.593)" fill="url(#linear-gradient)"/>
    </g>
    <g id="clean" transform="translate(897.369 363.324)">
      <path id="Union_21" data-name="Union 21" d="M9.459,43.6c0-9.12-7.808-9.4-8.719-9.4A.755.755,0,0,1,0,33.451a.786.786,0,0,1,.627-.741H.8c.911,0,8.719-.284,8.719-9.4a.741.741,0,1,1,1.481,0c0,9.061,7.805,9.4,8.719,9.4h.17a.617.617,0,0,1,.515.741.756.756,0,0,1-.744.741c-.91,0-8.719.284-8.719,9.4a.741.741,0,1,1-1.481,0ZM28.322,35.39c0-13.052-11.169-13.505-12.481-13.505h-.056a.774.774,0,0,1-.627-.4.844.844,0,0,1,0-.741.446.446,0,0,1,.228-.228.656.656,0,0,1,.454-.17c1.256,0,12.481-.457,12.539-13.505a.741.741,0,1,1,1.481,0c0,13.049,11.225,13.505,12.422,13.505a.936.936,0,0,1,.627.4.7.7,0,0,1,.059.741.877.877,0,0,1-.685.4c-1.253,0-12.481.454-12.481,13.505a.741.741,0,1,1-1.481,0ZM13.962,17.039c0-7.182-6.154-7.407-6.839-7.407a.755.755,0,0,1-.741-.741.741.741,0,0,1,.685-.741h.056c.741,0,6.839-.287,6.839-7.41a.741.741,0,1,1,1.481,0c0,7.182,6.154,7.41,6.839,7.41a.741.741,0,0,1,0,1.481h-.059c-.741,0-6.836.284-6.836,7.407a.747.747,0,0,1-.685.741A.755.755,0,0,1,13.962,17.039ZM10.487,8.891a7.258,7.258,0,0,1,4.1,4.046,7.649,7.649,0,0,1,4.1-4.046,7.657,7.657,0,0,1-4.1-4.046A7.655,7.655,0,0,1,10.487,8.891Z" transform="translate(0)" fill="url(#linear-gradient)"/>
      <path id="Path_193" data-name="Path 193" d="M130.481,55.237A16.284,16.284,0,0,1,129,48c0,13.962-12.48,14.247-13.278,14.247a15.116,15.116,0,0,1,6.155,1.482A12.208,12.208,0,0,0,130.481,55.237Z" transform="translate(-99.879 -41.162)" fill="url(#linear-gradient)"/>
      <path id="Path_195" data-name="Path 195" d="M20.492,168.842a11.3,11.3,0,0,1-1.311-5.642c0,9.973-8.89,10.2-9.46,10.2a10.878,10.878,0,0,1,4.958,1.368A8.828,8.828,0,0,0,20.492,168.842Z" transform="translate(-8.98 -139.949)" fill="url(#linear-gradient)"/>
      <path id="Path_196" data-name="Path 196" d="M53.721,13.349S61.3,13.235,61.3,21.5c0-8.263,7.579-8.149,7.579-8.149S61.3,13.463,61.3,5.2C61.3,13.406,53.721,13.349,53.721,13.349Z" transform="translate(-46.712 -4.459)" fill="url(#linear-gradient)"/>
      <path id="Path_197" data-name="Path 197" d="M62.9,9.987A8.716,8.716,0,0,1,61.7,5.2c0,7.978-7.123,8.149-7.579,8.149A8.671,8.671,0,0,1,58.338,14.6,7.019,7.019,0,0,0,62.9,9.987Z" transform="translate(-47.055 -4.459)" fill="url(#linear-gradient)"/>
    </g>
    <path id="document_1_" data-name="document (1)" d="M32.907,0H6.5V48.88H44.789v-37ZM27.681,18.737h5.7a.815.815,0,1,1,0,1.629h-5.7a.815.815,0,0,1,0-1.629Zm.815,6.517a.814.814,0,0,1-.815.815H19.535a.815.815,0,1,1,0-1.629h8.147A.814.814,0,0,1,28.5,25.255Zm-4.31-6.281a.815.815,0,1,1-1.157,0A.854.854,0,0,1,24.186,18.974ZM15.461,12.22h7.332a.815.815,0,1,1,0,1.629H15.461a.815.815,0,1,1,0-1.629Zm0,6.517h4.073a.815.815,0,0,1,0,1.629H15.461a.815.815,0,1,1,0-1.629Zm-.578,5.939a.826.826,0,1,1-.236.578A.838.838,0,0,1,14.883,24.676ZM16.04,37.238a.841.841,0,0,1-.578.236.857.857,0,0,1-.578-.236.806.806,0,0,1-.236-.578.825.825,0,0,1,.236-.578.845.845,0,0,1,1.157.008.807.807,0,0,1,.236.57A.857.857,0,0,1,16.04,37.238Zm11.642.236H19.535a.815.815,0,1,1,0-1.629h8.147a.815.815,0,1,1,0,1.629Zm1.629-5.7H15.461a.815.815,0,0,1,0-1.629H29.311a.815.815,0,0,1,0,1.629Zm8.147,5.7h-5.7a.815.815,0,0,1,0-1.629h5.7a.815.815,0,1,1,0,1.629Zm-4.888-6.517a.815.815,0,1,1,1.393.578.841.841,0,0,1-.578.236.81.81,0,0,1-.578-.236A.857.857,0,0,1,32.569,30.957Zm5.466.578a.826.826,0,0,1-1.157,0,.815.815,0,1,1,1.157,0Zm-.578-5.466h-5.7a.815.815,0,0,1,0-1.629h5.7a.815.815,0,1,1,0,1.629Zm.578-5.939a.818.818,0,1,1,0-1.157.826.826,0,0,1,0,1.157Zm-6.281-7.1V1.629L43.16,13.035Z" transform="translate(818.861 418.12)" fill="#fff"/>
  </g>
</svg>
