<svg height="164.094" viewBox="0 0 2892.677 164.094" width="2892.677" xmlns="http://www.w3.org/2000/svg"><g fill="none" stroke="#cdd4ec" stroke-width="2"><path d="m1443 139.859c-53.36 15.675-176.92 22.393-244.26-76.138-24.8-35.083-12.14-57.929 0-61.955 20.3-6.731 41.71 31.724-21.04 82.856s-173.61 60.463-231.481 60.463c-151.063 0-246.511-61.582-379.161-40.308s-244.3 19.393-372.022-.374c-108.6-16.808-198.036 21.646-198.036 21.646" transform="translate(3.395 .082)"/><path d="m1443 139.859c-53.36 15.675-176.92 22.393-244.26-76.138-24.8-35.083-12.14-57.929 0-61.955 20.3-6.731 41.71 31.724-21.04 82.856s-173.61 60.463-231.481 60.463c-151.063 0-246.511-61.582-379.161-40.308s-244.3 19.393-372.022-.374c-108.6-16.808-198.036 21.646-198.036 21.646" transform="translate(1449.395 14.082)"/></g></svg>