<svg height="22.065" viewBox="0 0 21.424 22.065" width="21.424" xmlns="http://www.w3.org/2000/svg" xmlns:xlink="http://www.w3.org/1999/xlink"><linearGradient id="a" gradientUnits="objectBoundingBox" x1=".5" x2=".5" y2="1"><stop offset="0" stop-color="#9ceeff"/><stop offset="1" stop-color="#6454f0"/></linearGradient><g fill="url(#a)"><path d="m4.708 21.7a4.266 4.266 0 0 0 -4.339-4.68.376.376 0 0 1 -.369-.372.391.391 0 0 1 .312-.369h.088a4.266 4.266 0 0 0 4.337-4.679.369.369 0 1 1 .737 0 4.286 4.286 0 0 0 4.339 4.68h.087a.307.307 0 0 1 .256.369.376.376 0 0 1 -.37.369 4.266 4.266 0 0 0 -4.341 4.682.369.369 0 1 1 -.737 0zm9.392-4.088c0-6.5-5.558-6.721-6.211-6.721h-.033a.385.385 0 0 1 -.312-.2.42.42 0 0 1 0-.369.222.222 0 0 1 .114-.114.326.326 0 0 1 .226-.085c.625 0 6.211-.227 6.24-6.721a.369.369 0 0 1 .737 0c0 6.494 5.586 6.721 6.182 6.721a.466.466 0 0 1 .312.2.347.347 0 0 1 .029.369.436.436 0 0 1 -.341.2c-.624 0-6.211.226-6.211 6.721a.369.369 0 0 1 -.737 0zm-7.152-9.132a3.359 3.359 0 0 0 -3.4-3.686.376.376 0 0 1 -.369-.369.369.369 0 0 1 .341-.369h.028a3.369 3.369 0 0 0 3.4-3.687.369.369 0 1 1 .737 0 3.36 3.36 0 0 0 3.4 3.688.369.369 0 0 1 0 .737h-.025a3.366 3.366 0 0 0 -3.4 3.686.372.372 0 0 1 -.341.369.376.376 0 0 1 -.371-.369zm-1.729-4.055a3.612 3.612 0 0 1 2.041 2.014 3.807 3.807 0 0 1 2.04-2.014 3.811 3.811 0 0 1 -2.04-2.014 3.81 3.81 0 0 1 -2.041 2.014z"/><path d="m123.066 51.6a8.1 8.1 0 0 1 -.737-3.6c0 6.948-6.211 7.09-6.608 7.09a7.523 7.523 0 0 1 3.063.737 6.076 6.076 0 0 0 4.282-4.227z" transform="translate(-107.837 -44.597)"/><path d="m15.081 166.008a5.626 5.626 0 0 1 -.652-2.808 4.692 4.692 0 0 1 -4.708 5.077 5.414 5.414 0 0 1 2.467.681 4.394 4.394 0 0 0 2.893-2.95z" transform="translate(-9.352 -151.629)"/><path d="m53.721 9.256a3.743 3.743 0 0 1 3.772 4.056 3.743 3.743 0 0 1 3.772-4.056 3.743 3.743 0 0 1 -3.772-4.056 3.766 3.766 0 0 1 -3.772 4.056z" transform="translate(-50.233 -4.831)"/><path d="m58.489 7.582a4.338 4.338 0 0 1 -.6-2.382 3.751 3.751 0 0 1 -3.772 4.056 4.315 4.315 0 0 1 2.1.624 3.493 3.493 0 0 0 2.272-2.298z" transform="translate(-50.604 -4.831)"/></g></svg>