<svg xmlns="http://www.w3.org/2000/svg" xmlns:xlink="http://www.w3.org/1999/xlink" width="51.398" height="51.398" viewBox="0 0 51.398 51.398">
  <defs>
    <linearGradient id="linear-gradient" x1="0.5" x2="0.5" y2="1" gradientUnits="objectBoundingBox">
      <stop offset="0" stop-color="#00ffed"/>
      <stop offset="1" stop-color="#00c2a8"/>
    </linearGradient>
    <clipPath id="clip-path">
      <circle id="Ellipse_101" data-name="Ellipse 101" cx="25.699" cy="25.699" r="25.699" transform="translate(0 0)" stroke="#707070" stroke-width="1" fill="url(#linear-gradient)"/>
    </clipPath>
  </defs>
  <g id="Group_58" data-name="Group 58" transform="translate(-356.947 -414.947)">
    <g id="Mask_Group_16" data-name="Mask Group 16" transform="translate(356.947 414.947)" clip-path="url(#clip-path)">
      <path id="Path_304" data-name="Path 304" d="M985,999.931s5.544,2.384,13.357-1.851,10.874,4.765,18.192,4.765,6.954-4.036,12.478-4.765a15.649,15.649,0,0,1,9.617,1.851v25.862H986.184Z" transform="translate(-987.226 -974.395)" fill="url(#linear-gradient)"/>
    </g>
    <g id="Path_336" data-name="Path 336" transform="translate(371 452)" fill="#0c2a57">
      <path d="M 10.52000045776367 1.559998750686646 C 8.164680480957031 1.559998750686646 6.023980140686035 1.009738802909851 4.157380104064941 -0.07549121975898743 C 2.246990203857422 -1.1861811876297 0.8451002836227417 -2.839941263198853 -0.009349732659757137 -4.990811347961426 L -0.3286597430706024 -5.794591426849365 L 0.4207002818584442 -6.226431369781494 L 5.140700340270996 -8.946431159973145 L 6.213670253753662 -9.564751625061035 L 6.592150211334229 -8.385631561279297 C 7.324560165405273 -6.103891372680664 9.184610366821289 -5.840001106262207 10.52000045776367 -5.840001106262207 C 11.67969036102295 -5.840001106262207 12.56995010375977 -6.101261138916016 13.16604995727539 -6.616541385650635 C 13.72721004486084 -7.101611137390137 14 -7.763491153717041 14 -8.64000129699707 C 14 -9.505361557006836 13.73270034790039 -10.14398097991943 13.15880012512207 -10.64979076385498 C 12.56387042999268 -11.17413139343262 11.67604064941406 -11.44000148773193 10.52000045776367 -11.44000148773193 L 9.320000648498535 -11.44000148773193 L 8.782959938049316 -11.44000148773193 L 8.486350059509277 -11.88771152496338 L 6.366350173950195 -15.08771133422852 L 5.972400188446045 -15.68235111236572 L 6.406390190124512 -16.24843215942383 L 10.69326019287109 -21.84000205993652 L 1.760000228881836 -21.84000205993652 L 0.7600002884864807 -21.84000205993652 L 0.7600002884864807 -22.84000205993652 L 0.7600002884864807 -28.00000190734863 L 0.7600002884864807 -29.00000190734863 L 1.760000228881836 -29.00000190734863 L 19.36000061035156 -29.00000190734863 L 20.36000061035156 -29.00000190734863 L 20.36000061035156 -28.00000190734863 L 20.36000061035156 -23.44000053405762 L 20.36000061035156 -23.09940147399902 L 20.152099609375 -22.82961082458496 L 15.74690914154053 -17.11295127868652 C 17.2283992767334 -16.47096633911133 18.48780250549316 -15.54411888122559 19.50284004211426 -14.34659099578857 C 20.84132957458496 -12.76748085021973 21.52000045776367 -10.84750080108643 21.52000045776367 -8.64000129699707 C 21.52000045776367 -5.464570999145508 20.42445945739746 -2.932741165161133 18.2638111114502 -1.114811182022095 C 16.15433120727539 0.6600587964057922 13.54894065856934 1.559998750686646 10.52000045776367 1.559998750686646 Z" stroke="none"/>
      <path d="M 1.760000228881836 -28.00000190734863 L 1.760000228881836 -22.84000015258789 L 12.72000026702881 -22.84000015258789 L 7.199999809265137 -15.64000129699707 L 9.320000648498535 -12.44000148773193 L 10.52000045776367 -12.44000148773193 C 11.93333053588867 -12.44000148773193 13.03332996368408 -12.0933313369751 13.81999969482422 -11.40000152587891 C 14.60667037963867 -10.7066707611084 15 -9.786670684814453 15 -8.64000129699707 C 15 -7.466670989990234 14.60667037963867 -6.540000915527344 13.81999969482422 -5.860000610351562 C 13.03332996368408 -5.180000305175781 11.93333053588867 -4.840002059936523 10.52000045776367 -4.840002059936523 C 7.960000038146973 -4.840002059936523 6.333330154418945 -5.920001983642578 5.640000343322754 -8.080001831054688 L 0.9200000762939453 -5.360000610351562 C 1.693330764770508 -3.413331985473633 2.940000534057617 -1.940000534057617 4.659999847412109 -0.9400005340576172 C 6.380000114440918 0.05999946594238281 8.333330154418945 0.5599994659423828 10.52000045776367 0.5599994659423828 C 13.32000064849854 0.5599994659423828 15.68667030334473 -0.2533321380615234 17.6200008392334 -1.880001068115234 C 19.55332946777344 -3.506671905517578 20.52000045776367 -5.760002136230469 20.52000045776367 -8.64000129699707 C 20.52000045776367 -10.61333084106445 19.92667007446289 -12.30000114440918 18.73999977111816 -13.70000076293945 C 17.55332946777344 -15.10000133514404 16.01333045959473 -16.08000183105469 14.1200008392334 -16.64000129699707 L 19.36000061035156 -23.44000053405762 L 19.36000061035156 -28.00000190734863 L 1.760000228881836 -28.00000190734863 M -0.2399997711181641 -30.00000190734863 L 1.760000228881836 -30.00000190734863 L 19.36000061035156 -30.00000190734863 L 21.36000061035156 -30.00000190734863 L 21.36000061035156 -28.00000190734863 L 21.36000061035156 -23.44000053405762 L 21.36000061035156 -22.75881195068359 L 20.94421005249023 -22.21923065185547 L 17.28075981140137 -17.46513366699219 C 18.42104339599609 -16.81769180297852 19.41950225830078 -15.99147891998291 20.26567077636719 -14.99319076538086 C 21.76152992248535 -13.22841167449951 22.52000045776367 -11.09089088439941 22.52000045776367 -8.64000129699707 C 22.52000045776367 -5.155712127685547 21.30462074279785 -2.366420745849609 18.90761947631836 -0.3496303558349609 C 16.61296081542969 1.581058502197266 13.79095077514648 2.559999465942383 10.52000045776367 2.559999465942383 C 7.985800743103027 2.559999465942383 5.676000595092773 1.964149475097656 3.654760360717773 0.7890090942382812 C 1.545949935913086 -0.4370403289794922 0.00048065185546875 -2.257440567016602 -0.9387092590332031 -4.621610641479492 L -1.577329635620117 -6.229190826416016 L -0.07859992980957031 -7.092861175537109 L 4.641399383544922 -9.812860488891602 L 6.78734016418457 -11.04950141906738 L 7.544300079345703 -8.691251754760742 C 8.066540718078613 -7.064271926879883 9.283110618591309 -6.840002059936523 10.52000045776367 -6.840002059936523 C 11.43265056610107 -6.840002059936523 12.10289001464844 -7.019351959228516 12.51210021972656 -7.373071670532227 C 12.7533597946167 -7.581621170043945 13 -7.895231246948242 13 -8.64000129699707 C 13 -9.359750747680664 12.74604034423828 -9.680622100830078 12.49760055541992 -9.899581909179688 C 12.09073066711426 -10.25818061828613 11.42537021636963 -10.44000053405762 10.52000045776367 -10.44000053405762 L 9.320000648498535 -10.44000053405762 L 8.24591064453125 -10.44000053405762 L 7.652700424194336 -11.33541107177734 L 5.532700538635254 -14.53541088104248 L 4.744800567626953 -15.72470092773438 L 5.612790107727051 -16.85686111450195 L 8.666530609130859 -20.84000015258789 L 1.760000228881836 -20.84000015258789 L -0.2399997711181641 -20.84000015258789 L -0.2399997711181641 -22.84000015258789 L -0.2399997711181641 -28.00000190734863 L -0.2399997711181641 -30.00000190734863 Z" stroke="none" fill="#fff"/>
    </g>
  </g>
</svg>
