<svg xmlns="http://www.w3.org/2000/svg" xmlns:xlink="http://www.w3.org/1999/xlink" width="41.827" height="41.827" viewBox="0 0 41.827 41.827">
  <defs>
    <linearGradient id="linear-gradient" x1="0.5" x2="0.5" y2="1" gradientUnits="objectBoundingBox">
      <stop offset="0" stop-color="#00ffed"/>
      <stop offset="1" stop-color="#00c2a8"/>
    </linearGradient>
    <clipPath id="clip-path">
      <circle id="Ellipse_118" data-name="Ellipse 118" cx="19.242" cy="19.242" r="19.242" transform="translate(0 0)" stroke="#707070" stroke-width="1" fill="url(#linear-gradient)"/>
    </clipPath>
    <linearGradient id="linear-gradient-2" x1="0.5" x2="0.5" y2="1" gradientUnits="objectBoundingBox">
      <stop offset="0" stop-color="#9ceeff"/>
      <stop offset="1" stop-color="#6454f0"/>
    </linearGradient>
  </defs>
  <g id="Group_135" data-name="Group 135" transform="translate(-440 -256)">
    <g id="Path_365" data-name="Path 365" transform="translate(440 256)" fill="#d1fbf8">
      <path d="M 20.91363906860352 40.82727813720703 C 18.22487831115723 40.82727813720703 15.61706924438477 40.30091094970703 13.16265869140625 39.26277923583984 C 10.79147911071777 38.25984954833984 8.661728858947754 36.82386779785156 6.832569122314453 34.99470901489258 C 5.003408908843994 33.16555023193359 3.567429065704346 31.03579902648926 2.564499139785767 28.66461944580078 C 1.526369094848633 26.21020889282227 0.9999990463256836 23.6023998260498 0.9999990463256836 20.91363906860352 C 0.9999990463256836 18.22487831115723 1.526369094848633 15.61706924438477 2.564499139785767 13.16265869140625 C 3.567429065704346 10.79147911071777 5.003408908843994 8.661728858947754 6.832569122314453 6.832569122314453 C 8.661728858947754 5.003408908843994 10.79147911071777 3.567429065704346 13.16265869140625 2.564499139785767 C 15.61706924438477 1.526369094848633 18.22487831115723 0.9999990463256836 20.91363906860352 0.9999990463256836 C 23.6023998260498 0.9999990463256836 26.21020889282227 1.526369094848633 28.66461944580078 2.564499139785767 C 31.03579902648926 3.567429065704346 33.16555023193359 5.003408908843994 34.99470901489258 6.832569122314453 C 36.82386779785156 8.661728858947754 38.25984954833984 10.79147911071777 39.26277923583984 13.16265869140625 C 40.30091094970703 15.61706924438477 40.82727813720703 18.22487831115723 40.82727813720703 20.91363906860352 C 40.82727813720703 23.6023998260498 40.30091094970703 26.21020889282227 39.26277923583984 28.66461944580078 C 38.25984954833984 31.03579902648926 36.82386779785156 33.16555023193359 34.99470901489258 34.99470901489258 C 33.16555023193359 36.82386779785156 31.03579902648926 38.25984954833984 28.66461944580078 39.26277923583984 C 26.21020889282227 40.30091094970703 23.6023998260498 40.82727813720703 20.91363906860352 40.82727813720703 Z" stroke="none"/>
      <path d="M 20.91363906860352 2 C 15.86162948608398 2 11.11198997497559 3.967357635498047 7.539680480957031 7.539680480957031 C 3.967357635498047 11.11198997497559 2 15.86162948608398 2 20.91363906860352 C 2 25.96564865112305 3.967357635498047 30.71529006958008 7.539680480957031 34.28759765625 C 11.11198997497559 37.85992050170898 15.86162948608398 39.82727813720703 20.91363906860352 39.82727813720703 C 25.96564865112305 39.82727813720703 30.71529006958008 37.85992050170898 34.28759765625 34.28759765625 C 37.85992050170898 30.71529006958008 39.82727813720703 25.96564865112305 39.82727813720703 20.91363906860352 C 39.82727813720703 15.86162948608398 37.85992050170898 11.11198997497559 34.28759765625 7.539680480957031 C 30.71529006958008 3.967357635498047 25.96564865112305 2 20.91363906860352 2 M 20.91363906860352 0 C 32.46392059326172 0 41.82727813720703 9.363357543945313 41.82727813720703 20.91363906860352 C 41.82727813720703 32.46392059326172 32.46392059326172 41.82727813720703 20.91363906860352 41.82727813720703 C 9.363357543945313 41.82727813720703 0 32.46392059326172 0 20.91363906860352 C 0 9.363357543945313 9.363357543945313 0 20.91363906860352 0 Z" stroke="none" fill="#fff"/>
    </g>
    <g id="Mask_Group_21" data-name="Mask Group 21" transform="translate(441.792 258)" clip-path="url(#clip-path)">
      <path id="Path_364" data-name="Path 364" d="M985,999.182s4.151,1.785,10-1.386,8.142,3.567,13.621,3.567,5.207-3.022,9.343-3.567a11.717,11.717,0,0,1,7.2,1.386v19.364H985.887Z" transform="translate(-986.667 -972.579)" fill="url(#linear-gradient-2)"/>
    </g>
    <path id="Path_366" data-name="Path 366" d="M.036-16.8h2.88V0H-.4V-13.3l-3.168.888L-4.38-15.24Z" transform="translate(460.38 285.8)" fill="#fff"/>
  </g>
</svg>
