<svg xmlns="http://www.w3.org/2000/svg" xmlns:xlink="http://www.w3.org/1999/xlink" width="41" height="41" viewBox="0 0 41 41">
  <defs>
    <linearGradient id="linear-gradient" x1="0.5" x2="0.5" y2="1" gradientUnits="objectBoundingBox">
      <stop offset="0" stop-color="#00ffed"/>
      <stop offset="1" stop-color="#00c2a8"/>
    </linearGradient>
    <clipPath id="clip-path">
      <circle id="Ellipse_119" data-name="Ellipse 119" cx="18.532" cy="18.532" r="18.532" transform="translate(0 0)" stroke="#707070" stroke-width="1" fill="url(#linear-gradient)"/>
    </clipPath>
    <linearGradient id="linear-gradient-2" x1="0.5" x2="0.5" y2="1" gradientUnits="objectBoundingBox">
      <stop offset="0" stop-color="#9ceeff"/>
      <stop offset="1" stop-color="#6454f0"/>
    </linearGradient>
  </defs>
  <g id="Group_141" data-name="Group 141" transform="translate(-705 -258)">
    <g id="Path_374" data-name="Path 374" transform="translate(705 258)" fill="#d1fbf8">
      <path d="M 20.5 40 C 17.86708068847656 40 15.31344032287598 39.48455810546875 12.91003036499023 38.46799850463867 C 10.58810043334961 37.48590850830078 8.502590179443359 36.07975006103516 6.711420059204102 34.28858184814453 C 4.920249938964844 32.49740982055664 3.514090061187744 30.41189956665039 2.532000064849854 28.08996963500977 C 1.515439987182617 25.68655967712402 1 23.13291931152344 1 20.5 C 1 17.86708068847656 1.515439987182617 15.31344032287598 2.532000064849854 12.91003036499023 C 3.514090061187744 10.58810043334961 4.920249938964844 8.502590179443359 6.711420059204102 6.711420059204102 C 8.502590179443359 4.920249938964844 10.58810043334961 3.514090061187744 12.91003036499023 2.532000064849854 C 15.31344032287598 1.515439987182617 17.86708068847656 1 20.5 1 C 23.13291931152344 1 25.68655967712402 1.515439987182617 28.08996963500977 2.532000064849854 C 30.41189956665039 3.514090061187744 32.49740982055664 4.920249938964844 34.28858184814453 6.711420059204102 C 36.07975006103516 8.502590179443359 37.48590850830078 10.58810043334961 38.46799850463867 12.91003036499023 C 39.48455810546875 15.31344032287598 40 17.86708068847656 40 20.5 C 40 23.13291931152344 39.48455810546875 25.68655967712402 38.46799850463867 28.08996963500977 C 37.48590850830078 30.41189956665039 36.07975006103516 32.49740982055664 34.28858184814453 34.28858184814453 C 32.49740982055664 36.07975006103516 30.41189956665039 37.48590850830078 28.08996963500977 38.46799850463867 C 25.68655967712402 39.48455810546875 23.13291931152344 40 20.5 40 Z" stroke="none"/>
      <path d="M 20.5 2 C 15.55846977233887 2 10.91271018981934 3.924339294433594 7.418521881103516 7.418521881103516 C 3.924339294433594 10.91271018981934 2 15.55846977233887 2 20.5 C 2 25.44153022766113 3.924339294433594 30.08728981018066 7.418521881103516 33.58148193359375 C 10.91271018981934 37.07566070556641 15.55846977233887 39 20.5 39 C 25.44153022766113 39 30.08728981018066 37.07566070556641 33.58148193359375 33.58148193359375 C 37.07566070556641 30.08728981018066 39 25.44153022766113 39 20.5 C 39 15.55846977233887 37.07566070556641 10.91271018981934 33.58148193359375 7.418521881103516 C 30.08728981018066 3.924339294433594 25.44153022766113 2 20.5 2 M 20.5 0 C 31.82184028625488 0 41 9.178159713745117 41 20.5 C 41 31.82184028625488 31.82184028625488 41 20.5 41 C 9.178159713745117 41 0 31.82184028625488 0 20.5 C 0 9.178159713745117 9.178159713745117 0 20.5 0 Z" stroke="none" fill="#fff"/>
    </g>
    <g id="Mask_Group_22" data-name="Mask Group 22" transform="translate(706.996 260)" clip-path="url(#clip-path)">
      <path id="Path_367" data-name="Path 367" d="M985,999.1s4,1.719,9.632-1.335,7.841,3.436,13.118,3.436,5.015-2.911,9-3.436a11.284,11.284,0,0,1,6.934,1.335v18.649H985.854Z" transform="translate(-986.605 -975.906)" fill="url(#linear-gradient-2)"/>
    </g>
    <path id="Path_368" data-name="Path 368" d="M-5.724,0V-2.472l5.736-5.9q1.92-2.016,1.92-3.36A2.118,2.118,0,0,0,1.32-13.32a2.151,2.151,0,0,0-1.572-.6A2.968,2.968,0,0,0-3.06-11.952l-2.784-1.632a5.869,5.869,0,0,1,2.28-2.64A6.127,6.127,0,0,1-.3-17.136a5.74,5.74,0,0,1,3.912,1.428,4.859,4.859,0,0,1,1.632,3.852q0,2.612-2.757,5.366l-3.3,3.3H5.508V0Z" transform="translate(725.844 287.136)" fill="#fff"/>
  </g>
</svg>
