<svg xmlns="http://www.w3.org/2000/svg" xmlns:xlink="http://www.w3.org/1999/xlink" width="41.828" height="41.827" viewBox="0 0 41.828 41.827">
  <defs>
    <linearGradient id="linear-gradient" x1="0.5" x2="0.5" y2="1" gradientUnits="objectBoundingBox">
      <stop offset="0" stop-color="#9ceeff"/>
      <stop offset="1" stop-color="#6454f0"/>
    </linearGradient>
    <clipPath id="clip-path">
      <circle id="Ellipse_120" data-name="Ellipse 120" cx="18.894" cy="18.894" r="18.894" transform="translate(0 0)" stroke="#707070" stroke-width="1" fill="url(#linear-gradient)"/>
    </clipPath>
  </defs>
  <g id="Group_144" data-name="Group 144" transform="translate(-1237.234 -256)">
    <g id="Path_369" data-name="Path 369" transform="translate(1237.235 256)" fill="#d1fbf8">
      <path d="M 20.91363906860352 40.82727813720703 C 18.22487831115723 40.82727813720703 15.61706924438477 40.30091094970703 13.16265869140625 39.26277923583984 C 10.79147911071777 38.25984954833984 8.661728858947754 36.82386779785156 6.832569122314453 34.99470901489258 C 5.003408908843994 33.16555023193359 3.567429065704346 31.03579902648926 2.564499139785767 28.66461944580078 C 1.526369094848633 26.21020889282227 0.9999990463256836 23.6023998260498 0.9999990463256836 20.91363906860352 C 0.9999990463256836 18.22487831115723 1.526369094848633 15.61706924438477 2.564499139785767 13.16265869140625 C 3.567429065704346 10.79147911071777 5.003408908843994 8.661728858947754 6.832569122314453 6.832569122314453 C 8.661728858947754 5.003408908843994 10.79147911071777 3.567429065704346 13.16265869140625 2.564499139785767 C 15.61706924438477 1.526369094848633 18.22487831115723 0.9999990463256836 20.91363906860352 0.9999990463256836 C 23.6023998260498 0.9999990463256836 26.21020889282227 1.526369094848633 28.66461944580078 2.564499139785767 C 31.03579902648926 3.567429065704346 33.16555023193359 5.003408908843994 34.99470901489258 6.832569122314453 C 36.82386779785156 8.661728858947754 38.25984954833984 10.79147911071777 39.26277923583984 13.16265869140625 C 40.30091094970703 15.61706924438477 40.82727813720703 18.22487831115723 40.82727813720703 20.91363906860352 C 40.82727813720703 23.6023998260498 40.30091094970703 26.21020889282227 39.26277923583984 28.66461944580078 C 38.25984954833984 31.03579902648926 36.82386779785156 33.16555023193359 34.99470901489258 34.99470901489258 C 33.16555023193359 36.82386779785156 31.03579902648926 38.25984954833984 28.66461944580078 39.26277923583984 C 26.21020889282227 40.30091094970703 23.6023998260498 40.82727813720703 20.91363906860352 40.82727813720703 Z" stroke="none"/>
      <path d="M 20.91363906860352 2 C 15.86162948608398 2 11.11198997497559 3.967357635498047 7.539680480957031 7.539680480957031 C 3.967357635498047 11.11198997497559 2 15.86162948608398 2 20.91363906860352 C 2 25.96564865112305 3.967357635498047 30.71529006958008 7.539680480957031 34.28759765625 C 11.11198997497559 37.85992050170898 15.86162948608398 39.82727813720703 20.91363906860352 39.82727813720703 C 25.96564865112305 39.82727813720703 30.71529006958008 37.85992050170898 34.28759765625 34.28759765625 C 37.85992050170898 30.71529006958008 39.82727813720703 25.96564865112305 39.82727813720703 20.91363906860352 C 39.82727813720703 15.86162948608398 37.85992050170898 11.11198997497559 34.28759765625 7.539680480957031 C 30.71529006958008 3.967357635498047 25.96564865112305 2 20.91363906860352 2 M 20.91363906860352 0 C 32.46392059326172 0 41.82727813720703 9.363357543945313 41.82727813720703 20.91363906860352 C 41.82727813720703 32.46392059326172 32.46392059326172 41.82727813720703 20.91363906860352 41.82727813720703 C 9.363357543945313 41.82727813720703 0 32.46392059326172 0 20.91363906860352 C 0 9.363357543945313 9.363357543945313 0 20.91363906860352 0 Z" stroke="none" fill="#fff"/>
    </g>
    <g id="Mask_Group_23" data-name="Mask Group 23" transform="translate(1239.198 258)" clip-path="url(#clip-path)">
      <path id="Path_370" data-name="Path 370" d="M983.676,990.022s4.076,1.713,9.82-1.33,7.995,3.423,13.374,3.423,5.113-2.9,9.173-3.423a11.719,11.719,0,0,1,7.07,1.33l1.287,27.372H985.834Z" transform="translate(-985.696 -978.25)" fill="url(#linear-gradient)"/>
    </g>
    <text id="_4" data-name="4" transform="translate(1258 285)" fill="#fff" font-size="24" font-family="Gilroy-Bold, Gilroy ☞" font-weight="700"><tspan x="-6.96" y="0">4</tspan></text>
  </g>
</svg>
