<svg xmlns="http://www.w3.org/2000/svg" xmlns:xlink="http://www.w3.org/1999/xlink" width="41.828" height="41.827" viewBox="0 0 41.828 41.827">
  <defs>
    <linearGradient id="linear-gradient" x1="0.5" x2="0.5" y2="1" gradientUnits="objectBoundingBox">
      <stop offset="0" stop-color="#9ceeff"/>
      <stop offset="1" stop-color="#6454f0"/>
    </linearGradient>
  </defs>
  <g id="Group_140" data-name="Group 140" transform="translate(-442 -253)">
    <g id="Path_365" data-name="Path 365" transform="translate(442 253)" fill="url(#linear-gradient)">
      <path d="M 20.91363906860352 40.82727813720703 C 18.22487831115723 40.82727813720703 15.61706924438477 40.30091094970703 13.16265869140625 39.26277923583984 C 10.79147911071777 38.25984954833984 8.661728858947754 36.82386779785156 6.832569122314453 34.99470901489258 C 5.003408908843994 33.16555023193359 3.567429065704346 31.03579902648926 2.564499139785767 28.66461944580078 C 1.526369094848633 26.21020889282227 0.9999990463256836 23.6023998260498 0.9999990463256836 20.91363906860352 C 0.9999990463256836 18.22487831115723 1.526369094848633 15.61706924438477 2.564499139785767 13.16265869140625 C 3.567429065704346 10.79147911071777 5.003408908843994 8.661728858947754 6.832569122314453 6.832569122314453 C 8.661728858947754 5.003408908843994 10.79147911071777 3.567429065704346 13.16265869140625 2.564499139785767 C 15.61706924438477 1.526369094848633 18.22487831115723 0.9999990463256836 20.91363906860352 0.9999990463256836 C 23.6023998260498 0.9999990463256836 26.21020889282227 1.526369094848633 28.66461944580078 2.564499139785767 C 31.03579902648926 3.567429065704346 33.16555023193359 5.003408908843994 34.99470901489258 6.832569122314453 C 36.82386779785156 8.661728858947754 38.25984954833984 10.79147911071777 39.26277923583984 13.16265869140625 C 40.30091094970703 15.61706924438477 40.82727813720703 18.22487831115723 40.82727813720703 20.91363906860352 C 40.82727813720703 23.6023998260498 40.30091094970703 26.21020889282227 39.26277923583984 28.66461944580078 C 38.25984954833984 31.03579902648926 36.82386779785156 33.16555023193359 34.99470901489258 34.99470901489258 C 33.16555023193359 36.82386779785156 31.03579902648926 38.25984954833984 28.66461944580078 39.26277923583984 C 26.21020889282227 40.30091094970703 23.6023998260498 40.82727813720703 20.91363906860352 40.82727813720703 Z" stroke="none"/>
      <path d="M 20.91363906860352 2 C 15.86162948608398 2 11.11198997497559 3.967357635498047 7.539680480957031 7.539680480957031 C 3.967357635498047 11.11198997497559 2 15.86162948608398 2 20.91363906860352 C 2 25.96564865112305 3.967357635498047 30.71529006958008 7.539680480957031 34.28759765625 C 11.11198997497559 37.85992050170898 15.86162948608398 39.82727813720703 20.91363906860352 39.82727813720703 C 25.96564865112305 39.82727813720703 30.71529006958008 37.85992050170898 34.28759765625 34.28759765625 C 37.85992050170898 30.71529006958008 39.82727813720703 25.96564865112305 39.82727813720703 20.91363906860352 C 39.82727813720703 15.86162948608398 37.85992050170898 11.11198997497559 34.28759765625 7.539680480957031 C 30.71529006958008 3.967357635498047 25.96564865112305 2 20.91363906860352 2 M 20.91363906860352 0 C 32.46392059326172 0 41.82727813720703 9.363357543945313 41.82727813720703 20.91363906860352 C 41.82727813720703 32.46392059326172 32.46392059326172 41.82727813720703 20.91363906860352 41.82727813720703 C 9.363357543945313 41.82727813720703 0 32.46392059326172 0 20.91363906860352 C 0 9.363357543945313 9.363357543945313 0 20.91363906860352 0 Z" stroke="none" fill="#fff"/>
    </g>
    <path id="Path_378" data-name="Path 378" d="M18.4,8.912c-.868-.468-1.837.434-2.4.969-1.3,1.269-2.4,2.739-3.641,4.075-1.369,1.47-2.639,2.939-4.042,4.376A12.051,12.051,0,0,0,6.113,21a43.843,43.843,0,0,0-3.574-3.474c-.969-.735-2.572-1.269-2.538.5.067,2.3,2.1,4.776,3.607,6.346a3.815,3.815,0,0,0,2.438,1.4c1.169.067,2.371-1.336,3.073-2.1,1.236-1.336,2.238-2.839,3.373-4.209,1.47-1.8,2.973-3.574,4.409-5.411C17.8,12.92,20.643,10.114,18.4,8.912ZM1.47,17.9a.253.253,0,0,0-.134.033A1.626,1.626,0,0,1,.969,17.8h0Q1.12,17.7,1.47,17.9Z" transform="translate(453 256.219)" fill="#fff"/>
  </g>
</svg>
