<?xml version="1.0" encoding="utf-8"?>
<!-- Generator: Adobe Illustrator 18.0.0, SVG Export Plug-In . SVG Version: 6.00 Build 0)  -->
<!DOCTYPE svg PUBLIC "-//W3C//DTD SVG 1.1//EN" "http://www.w3.org/Graphics/SVG/1.1/DTD/svg11.dtd">
<svg version="1.1" id="Layer_1" xmlns="http://www.w3.org/2000/svg" xmlns:xlink="http://www.w3.org/1999/xlink" x="0px" y="0px"
	 viewBox="0 0 210.7 210.7" enable-background="new 0 0 210.7 210.7" xml:space="preserve">
<linearGradient id="SVGID_1_" gradientUnits="userSpaceOnUse" x1="-199.1174" y1="500.4148" x2="-197.8824" y2="499.7868" gradientTransform="matrix(211.4788 0 0 -211.4515 42095.3789 105857.9141)">
	<stop  offset="0" style="stop-color:#FFFFFF;stop-opacity:0"/>
	<stop  offset="1" style="stop-color:#4B43B2"/>
</linearGradient>
<path fill="url(#SVGID_1_)" d="M64.3,202.4C10.5,179.8-14.7,117.8,7.9,64S92.5-15.1,146.4,7.6s79.1,84.6,56.4,138.4
	c-16.5,39.2-54.9,64.7-97.4,64.7C91.3,210.7,77.3,207.9,64.3,202.4z M13.7,106.3c0,51.2,41.5,92.7,92.7,92.7
	c39.4,0,74.5-24.9,87.5-62c-5-2.8-11.1-14.7-11.1-27c0-13.8,7.6-28.2,12.8-28.9C181.5,31.7,130.2,3.2,81,17.2
	C41.1,28.5,13.7,64.9,13.7,106.3L13.7,106.3z"/>
</svg>
