<svg height="30.022" viewBox="0 0 30.022 30.022" width="30.022" xmlns="http://www.w3.org/2000/svg" xmlns:xlink="http://www.w3.org/1999/xlink"><clipPath id="a"><path d="m15.785 68.327c5.356-3.516 13.883-5.314 13.883 2.879a14.834 14.834 0 1 1 -29.668 0c0-8.193 10.43.637 15.785-2.879z" transform="translate(1641.156 -15.152)"/></clipPath><path d="m15.011 0a15.011 15.011 0 1 1 -15.011 15.011 15.011 15.011 0 0 1 15.011-15.011z" fill="#ddfefc"/><g clip-path="url(#a)" transform="translate(-1640.802 -41)"><g transform="translate(1641.156 42.385)"><circle cx="15.252" cy="15.252" fill="#f0f0f0" r="15.252"/><g fill="#0052b4"><path d="m2.995 4.169a15.2 15.2 0 0 0 -2.628 5.307h7.933z" transform="translate(.158 1.797)"/><path d="m23.337 9.476a15.2 15.2 0 0 0 -2.627-5.307l-5.31 5.307z" transform="translate(6.641 1.797)"/><path d="m.367 13.437a15.2 15.2 0 0 0 2.627 5.307l5.306-5.307z" transform="translate(.158 5.793)"/><path d="m18.744 2.995a15.2 15.2 0 0 0 -5.307-2.628v7.933z" transform="translate(5.793 .158)"/><path d="m4.169 20.709a15.2 15.2 0 0 0 5.307 2.627v-7.936z" transform="translate(1.797 6.641)"/><path d="m9.476.367a15.2 15.2 0 0 0 -5.307 2.628l5.307 5.305z" transform="translate(1.797 .158)"/><path d="m13.437 23.337a15.2 15.2 0 0 0 5.307-2.627l-5.307-5.31z" transform="translate(5.793 6.641)"/><path d="m15.4 13.437 5.307 5.307a15.2 15.2 0 0 0 2.627-5.307z" transform="translate(6.641 5.793)"/></g><g fill="#d80027"><path d="m30.374 13.262h-13.133v-13.133a15.392 15.392 0 0 0 -3.979 0v13.133h-13.133a15.392 15.392 0 0 0 0 3.979h13.133v13.133a15.392 15.392 0 0 0 3.979 0v-13.133h13.133a15.392 15.392 0 0 0 0-3.979z"/><path d="m13.437 13.437 6.806 6.806q.47-.469.9-.979l-5.827-5.827z" transform="translate(5.794 5.794)"/><path d="m9.927 13.437-6.806 6.806q.469.47.979.9l5.827-5.827z" transform="translate(1.346 5.794)"/><path d="m10.2 9.927-6.809-6.806q-.47.469-.9.979l5.831 5.827z" transform="translate(1.076 1.346)"/><path d="m13.437 10.2 6.806-6.806q-.469-.47-.979-.9l-5.827 5.828z" transform="translate(5.794 1.076)"/></g></g></g></svg>