<svg xmlns="http://www.w3.org/2000/svg" xmlns:xlink="http://www.w3.org/1999/xlink" width="117.85" height="117.852" viewBox="0 0 117.85 117.852">
  <defs>
    <clipPath id="clip-path">
      <path id="Path_1" data-name="Path 1" d="M61.965,76.989c21.024-13.8,54.5-20.86,54.5,11.3A58.23,58.23,0,1,1,0,88.289C0,56.13,40.941,90.793,61.965,76.989Z" transform="translate(-13976.637 -2400.024)" fill="#fff"/>
    </clipPath>
  </defs>
  <g id="Group_370" data-name="Group 370" transform="translate(13978.025 2370.83)">
    <path id="Path_3" data-name="Path 3" d="M58.925,0A58.926,58.926,0,1,1,0,58.926,58.925,58.925,0,0,1,58.925,0Z" transform="translate(-13978.025 -2370.83)" fill="#ddfefc"/>
    <g id="Mask_Group_76" data-name="Mask Group 76" clip-path="url(#clip-path)">
      <g id="italy" transform="translate(-13976.637 -2354.737)">
        <path id="Path_1195" data-name="Path 1195" d="M40.054,98.806H2.072A2.072,2.072,0,0,1,0,96.734V22.15a2.072,2.072,0,0,1,2.072-2.072H40.054Z" fill="#73af00"/>
        <rect id="Rectangle_339" data-name="Rectangle 339" width="40.055" height="78.727" transform="translate(40.055 20.08)" fill="#f5f5f5"/>
        <path id="Path_1196" data-name="Path 1196" d="M115.622,98.806H77.64V20.079h37.982a2.072,2.072,0,0,1,2.072,2.072V96.734A2.072,2.072,0,0,1,115.622,98.806Z" transform="translate(2.468 0)" fill="#ff4b55"/>
      </g>
    </g>
  </g>
</svg>
