<svg xmlns="http://www.w3.org/2000/svg" xmlns:xlink="http://www.w3.org/1999/xlink" width="117.85" height="117.852" viewBox="0 0 117.85 117.852">
  <defs>
    <clipPath id="clip-path">
      <path id="Path_1" data-name="Path 1" d="M61.965,76.989c21.024-13.8,54.5-20.86,54.5,11.3A58.23,58.23,0,1,1,0,88.289C0,56.13,40.941,90.793,61.965,76.989Z" transform="translate(-13502.637 -2459.024)" fill="#fff"/>
    </clipPath>
  </defs>
  <g id="Group_373" data-name="Group 373" transform="translate(13504.025 2429.83)">
    <path id="Path_3" data-name="Path 3" d="M58.925,0A58.926,58.926,0,1,1,0,58.926,58.925,58.925,0,0,1,58.925,0Z" transform="translate(-13504.025 -2429.83)" fill="#ddfefc"/>
    <g id="Mask_Group_75" data-name="Mask Group 75" clip-path="url(#clip-path)">
      <g id="south-korea" transform="translate(-13502.637 -2411.311)">
        <path id="Path_1174" data-name="Path 1174" d="M114.452,96.381H2.008A2.008,2.008,0,0,1,0,94.373V22.087a2.008,2.008,0,0,1,2.008-2.008H114.452a2.008,2.008,0,0,1,2.008,2.008V94.373A2.008,2.008,0,0,1,114.452,96.381Z" fill="#f5f5f5"/>
        <path id="Path_1175" data-name="Path 1175" d="M69.378,41.519a20.084,20.084,0,0,0-27.835,5.574A10.033,10.033,0,1,0,58.237,58.226,10.033,10.033,0,1,1,74.932,69.358a20.077,20.077,0,0,0-5.554-27.839" fill="#ff4b55"/>
        <path id="Path_1176" data-name="Path 1176" d="M41.542,47.094A10.033,10.033,0,1,0,58.237,58.226,10.033,10.033,0,1,1,74.931,69.358,20.066,20.066,0,1,1,41.542,47.094" fill="#41479b"/>
        <g id="Group_366" data-name="Group 366">
          <path id="Path_1177" data-name="Path 1177" d="M79.593,33.935l3.647,5.482a1,1,0,0,1-.277,1.39l-.925.619a1,1,0,0,1-1.394-.278l-3.652-5.481a1,1,0,0,1,.278-1.392l.929-.621A1,1,0,0,1,79.593,33.935Z" fill="#464655"/>
          <path id="Path_1178" data-name="Path 1178" d="M85.221,42.388l3.659,5.479a1,1,0,0,1-.281,1.4l-.929.614a1,1,0,0,1-1.388-.28l-3.657-5.473A1,1,0,0,1,82.9,42.73l.927-.62A1,1,0,0,1,85.221,42.388Z" fill="#464655"/>
          <path id="Path_1179" data-name="Path 1179" d="M83.5,31.329l9.287,13.937a1,1,0,0,1-.279,1.392l-.933.622A1,1,0,0,1,90.182,47l-9.29-13.936a1,1,0,0,1,.279-1.393l.936-.623A1,1,0,0,1,83.5,31.329Z" fill="#464655"/>
          <path id="Path_1180" data-name="Path 1180" d="M87.393,28.727l3.655,5.493a1,1,0,0,1-.282,1.394l-.929.614a1,1,0,0,1-1.389-.281L84.79,30.461a1,1,0,0,1,.278-1.392L86,28.447A1,1,0,0,1,87.393,28.727Z" fill="#464655"/>
          <path id="Path_1181" data-name="Path 1181" d="M93.024,37.2l3.65,5.482A1,1,0,0,1,96.4,44.07l-.927.62a1,1,0,0,1-1.394-.278l-3.65-5.482a1,1,0,0,1,.278-1.391l.927-.62A1,1,0,0,1,93.024,37.2Z" fill="#464655"/>
          <path id="Path_1182" data-name="Path 1182" d="M30.189,66.87l9.286,13.922a1,1,0,0,1-.278,1.392l-.93.621a1,1,0,0,1-1.393-.278L27.588,68.6a1,1,0,0,1,.278-1.392l.93-.621A1,1,0,0,1,30.189,66.87Z" fill="#464655"/>
          <path id="Path_1183" data-name="Path 1183" d="M26.29,69.474l3.646,5.468a1,1,0,0,1-.277,1.391l-.925.619a1,1,0,0,1-1.393-.277l-3.65-5.467a1,1,0,0,1,.278-1.393L24.9,69.2A1,1,0,0,1,26.29,69.474Z" fill="#464655"/>
          <path id="Path_1184" data-name="Path 1184" d="M31.924,77.93l3.65,5.482A1,1,0,0,1,35.3,84.8l-.928.62a1,1,0,0,1-1.393-.278l-3.652-5.481a1,1,0,0,1,.278-1.392l.93-.621A1,1,0,0,1,31.924,77.93Z" fill="#464655"/>
          <path id="Path_1185" data-name="Path 1185" d="M22.392,72.077,31.672,86a1,1,0,0,1-.277,1.392l-.927.62a1,1,0,0,1-1.393-.278L19.788,73.813a1,1,0,0,1,.278-1.393L21,71.8A1,1,0,0,1,22.392,72.077Z" fill="#464655"/>
          <path id="Path_1186" data-name="Path 1186" d="M27.59,47.868l9.285-13.934a1,1,0,0,1,1.393-.278l.93.621a1,1,0,0,1,.278,1.392L30.187,49.594a1,1,0,0,1-1.389.28l-.926-.613A1,1,0,0,1,27.59,47.868Z" fill="#464655"/>
          <path id="Path_1187" data-name="Path 1187" d="M23.689,45.267l9.286-13.936a1,1,0,0,1,1.393-.278l.927.62a1,1,0,0,1,.278,1.391L26.29,47a1,1,0,0,1-1.393.278l-.93-.621A1,1,0,0,1,23.689,45.267Z" fill="#464655"/>
          <path id="Path_1188" data-name="Path 1188" d="M19.787,42.678l9.287-13.95a1,1,0,0,1,1.394-.278l.927.62a1,1,0,0,1,.278,1.391L22.392,44.412A1,1,0,0,1,21,44.691l-.933-.622A1,1,0,0,1,19.787,42.678Z" fill="#464655"/>
          <path id="Path_1189" data-name="Path 1189" d="M76.994,80.792l3.65-5.467a1,1,0,0,1,1.393-.277l.925.619a1,1,0,0,1,.277,1.391l-3.646,5.468A1,1,0,0,1,78.2,82.8l-.929-.621A1,1,0,0,1,76.994,80.792Z" fill="#464655"/>
          <path id="Path_1190" data-name="Path 1190" d="M82.624,72.365l3.656-5.494a1,1,0,0,1,1.393-.279l.932.621a1,1,0,0,1,.278,1.393l-3.664,5.485a1,1,0,0,1-1.39.279l-.924-.612A1,1,0,0,1,82.624,72.365Z" fill="#464655"/>
          <path id="Path_1191" data-name="Path 1191" d="M80.891,83.41l3.652-5.481a1,1,0,0,1,1.393-.279l.934.623a1,1,0,0,1,.279,1.392L83.5,85.146a1,1,0,0,1-1.392.279L81.17,84.8A1,1,0,0,1,80.891,83.41Z" fill="#464655"/>
          <path id="Path_1192" data-name="Path 1192" d="M86.527,74.94l3.654-5.469a1,1,0,0,1,1.392-.278l.933.622a1,1,0,0,1,.278,1.393L89.13,76.678a1,1,0,0,1-1.392.278l-.933-.622A1,1,0,0,1,86.527,74.94Z" fill="#464655"/>
          <path id="Path_1193" data-name="Path 1193" d="M84.791,86l3.656-5.472a1,1,0,0,1,1.388-.28l.929.614a1,1,0,0,1,.282,1.395l-3.654,5.479A1,1,0,0,1,86,88.014l-.932-.621A1,1,0,0,1,84.791,86Z" fill="#464655"/>
          <path id="Path_1194" data-name="Path 1194" d="M90.428,77.557l3.647-5.478a1,1,0,0,1,1.394-.278l.926.619a1,1,0,0,1,.277,1.392l-3.651,5.471a1,1,0,0,1-1.39.28l-.923-.612A1,1,0,0,1,90.428,77.557Z" fill="#464655"/>
        </g>
      </g>
    </g>
  </g>
</svg>
