<svg height="37.564" viewBox="0 0 37.564 37.564" width="37.564" xmlns="http://www.w3.org/2000/svg" xmlns:xlink="http://www.w3.org/1999/xlink"><linearGradient id="a" gradientUnits="objectBoundingBox" x1=".332" x2=".585" y1=".141" y2=".682"><stop offset="0" stop-color="#3457a0"/><stop offset="1" stop-color="#3b5998"/></linearGradient><linearGradient id="b" gradientUnits="objectBoundingBox" x1=".714" x2="-.271" y1=".647" y2="-.03"><stop offset="0" stop-color="#3457a0" stop-opacity="0"/><stop offset="1" stop-color="#1f3f77"/></linearGradient><linearGradient id="c" x1=".5" x2=".5" xlink:href="#b" y1=".177" y2=".855"/><linearGradient id="d" gradientUnits="objectBoundingBox" x1="1.26" x2=".043" y1=".791" y2=".371"><stop offset="0" stop-color="#3457a0" stop-opacity="0"/><stop offset=".325" stop-color="#2a4c8d" stop-opacity=".325"/><stop offset=".705" stop-color="#22427d" stop-opacity=".706"/><stop offset="1" stop-color="#1f3f77"/></linearGradient><path d="m30.845 36.92a113.46 113.46 0 0 1 -24.126 0 6.84 6.84 0 0 1 -6.076-6.076 113.457 113.457 0 0 1 0-24.126 6.84 6.84 0 0 1 6.076-6.075 113.457 113.457 0 0 1 24.126 0 6.84 6.84 0 0 1 6.076 6.076 113.457 113.457 0 0 1 0 24.126 6.84 6.84 0 0 1 -6.076 6.076zm0 0" fill="url(#a)"/><path d="m61.6 34.8a6.069 6.069 0 0 0 -5.4-5.4 100.718 100.718 0 0 0 -21.409 0 6.07 6.07 0 0 0 -5.391 5.4 100.715 100.715 0 0 0 0 21.409 6.07 6.07 0 0 0 5.4 5.391 100.677 100.677 0 0 0 21.409 0 6.069 6.069 0 0 0 5.391-5.395 100.678 100.678 0 0 0 0-21.409zm0 0" fill="url(#b)" transform="translate(-26.719 -26.719)"/><path d="m7.672 409.8q.039.389.08.779a6.84 6.84 0 0 0 6.076 6.076 113.457 113.457 0 0 0 24.126 0 6.84 6.84 0 0 0 6.076-6.076q.042-.389.081-.779zm0 0" fill="url(#c)" transform="translate(-7.109 -379.739)"/><path d="m229.092 85.27a5.926 5.926 0 0 0 -5.926 5.926v4.426h-3.189v5.48l3.189 2.856v12.617a113.7 113.7 0 0 0 11.517-.641 6.84 6.84 0 0 0 6.076-6.076 113.436 113.436 0 0 0 .49-17.953l-6.636-6.636zm0 0" fill="url(#d)" transform="translate(-203.838 -79.014)"/><path d="m223.165 116.576q3.283-.016 6.565-.222v-15.254h4.356l.526-5.48h-4.882v-3.48a1.392 1.392 0 0 1 1.392-1.392h3.49v-5.478h-5.521a5.926 5.926 0 0 0 -5.926 5.926v4.426h-3.189v5.48h3.189zm0 0" fill="#fff" transform="translate(-203.837 -79.014)"/></svg>