<svg height="117" viewBox="0 0 486 117" width="486" xmlns="http://www.w3.org/2000/svg" xmlns:xlink="http://www.w3.org/1999/xlink"><linearGradient id="a" x1="98.9%" x2="0%" y1="0%" y2="100%"><stop offset="0" stop-color="#00ffed"/><stop offset="1" stop-color="#00e3c5"/></linearGradient><linearGradient id="b" x1="50%" x2="50%" y1="0%" y2="100%"><stop offset="0" stop-color="#fff" stop-opacity=".639"/><stop offset="1" stop-color="#fff" stop-opacity="0"/></linearGradient><mask id="c" fill="#fff"><path d="m0 0h486v117h-486z" fill="#fff" fill-rule="evenodd"/></mask><g fill="none" fill-rule="evenodd" mask="url(#c)"><g fill-rule="nonzero" transform="translate(-124 -2)"><rect fill="url(#a)" height="121.381579" rx="37.5" transform="translate(90 1)" width="566.381766" x=".326952" y=".809211"/><rect fill="url(#a)" height="121.381579" rx="37.5" transform="translate(90)" width="566.381766" x=".326952" y=".809211"/><path d="m71.91791 59.5336188s58.975667-32.5620724 115.558284 0c56.582616 32.5620724 152.730776 0 152.730776 0s33.556183-40.2120519 103.435868 0 118.790604 0 118.790604 0 101.214558-43.9506423 130.913019 0c29.698462 43.9506422-12.120795 175.8009542-12.120795 175.8009542l-681.225666 9.665427z" fill="url(#b)" opacity=".49"/></g></g></svg>