<svg height="37.564" viewBox="0 0 37.564 37.564" width="37.564" xmlns="http://www.w3.org/2000/svg" xmlns:xlink="http://www.w3.org/1999/xlink"><linearGradient id="a" gradientUnits="objectBoundingBox" x1=".332" x2=".585" y1=".141" y2=".682"><stop offset="0" stop-color="#0082ff"/><stop offset="1" stop-color="#0078db"/></linearGradient><linearGradient id="b" gradientUnits="objectBoundingBox" x1=".738" x2="-.899" y1=".628" y2="-.25"><stop offset="0" stop-color="#0078db" stop-opacity="0"/><stop offset="1" stop-color="#006cb5"/></linearGradient><linearGradient id="c" x1=".5" x2=".5" xlink:href="#b" y1=".332" y2=".843"/><linearGradient id="d" x1=".844" x2=".483" xlink:href="#b" y1=".879" y2=".52"/><path d="m30.845 36.92a113.46 113.46 0 0 1 -24.126 0 6.84 6.84 0 0 1 -6.076-6.076 113.457 113.457 0 0 1 0-24.126 6.84 6.84 0 0 1 6.076-6.075 113.457 113.457 0 0 1 24.126 0 6.84 6.84 0 0 1 6.076 6.076 113.457 113.457 0 0 1 0 24.126 6.84 6.84 0 0 1 -6.076 6.076zm0 0" fill="url(#a)"/><path d="m61.6 34.8a6.069 6.069 0 0 0 -5.4-5.4 100.718 100.718 0 0 0 -21.409 0 6.07 6.07 0 0 0 -5.391 5.4 100.715 100.715 0 0 0 0 21.409 6.07 6.07 0 0 0 5.4 5.391 100.677 100.677 0 0 0 21.409 0 6.069 6.069 0 0 0 5.391-5.4 100.678 100.678 0 0 0 0-21.409zm0 0" fill="url(#b)" transform="translate(-26.719 -26.719)"/><path d="m7.672 409.8q.039.389.08.779a6.84 6.84 0 0 0 6.076 6.076 113.456 113.456 0 0 0 24.126 0 6.84 6.84 0 0 0 6.076-6.076q.042-.39.081-.779zm0 0" fill="url(#c)" transform="translate(-7.109 -379.739)"/><g transform="translate(-91.248 -90.177)"><path d="m128.168 121.021q.532-4.987.624-9.982l-10.079-10.079a11.936 11.936 0 0 0 -8.683-3.643c-6.383 0-11.557 4.8-11.557 10.713a10.288 10.288 0 0 0 3.288 7.482c.134.141.953.959 1.018 1.023l.044 3.559a1.248 1.248 0 0 0 .365.867l6.78 6.78a113.624 113.624 0 0 0 12.124-.643 6.84 6.84 0 0 0 6.076-6.076zm0 0" fill="url(#d)"/><path d="m110.03 97.316c-6.383 0-11.557 4.8-11.557 10.713a10.419 10.419 0 0 0 4.3 8.34l.047 3.777a.268.268 0 0 0 .4.23l3.609-2.05a12.415 12.415 0 0 0 3.2.415c6.383 0 11.557-4.8 11.557-10.713s-5.174-10.713-11.557-10.713zm.878 14.166-2.47-2.571a.465.465 0 0 0 -.556-.087l-4.335 2.334a.165.165 0 0 1 -.2-.259l5.123-5.43a.372.372 0 0 1 .541 0l2.47 2.621a.465.465 0 0 0 .561.09l4.26-2.319a.165.165 0 0 1 .2.259l-5.055 5.361a.372.372 0 0 1 -.539.001zm0 0" fill="#fff"/></g></svg>