<?xml version="1.0" encoding="UTF-8"?>
<svg width="490px" height="490px" viewBox="0 0 490 490" version="1.1" xmlns="http://www.w3.org/2000/svg" xmlns:xlink="http://www.w3.org/1999/xlink">
    <!-- Generator: Sketch 50 (54983) - http://www.bohemiancoding.com/sketch -->
    <title>telegram2</title>
    <desc>Created with Sketch.</desc>
    <defs></defs>
    <g id="Page-1" stroke="none" stroke-width="1" fill="none" fill-rule="evenodd">
        <g id="telegram2" fill-rule="nonzero">
            <path d="M480,30 L480,460 C480,470.996 470.996,480 460,480 L30,480 C19.004,480 10,470.996 10,460 L10,30 C10,18.999 19.004,10 30,10 L460,10 C470.996,10 480,18.999 480,30 Z" id="Shape" fill="#61A8DE"></path>
            <g id="XMLID_38_">
                <path d="M382.598,107.495 C405,100.493 420,110.493 420,125.493 C420,125.493 362.598,372.5 352.598,392.5 C342.598,412.5 327.598,402.5 327.598,402.5 L242.598,342.5 C242.598,342.5 227.598,357.5 207.598,377.5 C187.598,397.5 177.598,377.5 177.598,377.5 L142.598,282.5 C142.598,282.5 86.895,276.191 67.598,257.5 C50,240.493 65,230.493 65,230.493 L382.598,107.495 Z M235,275.498 L370,145.493 L170,260.498 L200,340.498 L235,275.498 Z" id="Shape" fill="#FFFFFF"></path>
                <g id="Group">
                    <path d="M460,0 L30,0 C13.458,0 0,13.458 0,30 L0,460 C0,476.542 13.458,490 30,490 L460,490 C476.542,490 490,476.542 490,460 L490,30 C490,13.458 476.542,0 460,0 Z M470,460 C470,465.514 465.514,470 460,470 L30,470 C24.486,470 20,465.514 20,460 L20,30 C20,24.486 24.486,20 30,20 L460,20 C465.514,20 470,24.486 470,30 L470,460 Z" id="Shape" fill="#61A8DE"></path>
                    <path d="M396.428,95.214 C391.08,95.214 385.424,96.134 379.615,97.95 C379.403,98.016 379.194,98.09 378.987,98.17 L61.389,221.168 C60.709,221.431 60.06,221.768 59.453,222.173 C58.501,222.808 50.12,228.691 49.134,239.606 C48.363,248.123 52.238,256.563 60.641,264.684 C78.415,281.901 119.194,289.305 135.305,291.631 L168.214,380.958 C168.342,381.305 168.488,381.644 168.653,381.974 C171.332,387.328 179.037,396.39 190.93,396.39 C198.84,396.39 206.826,392.414 214.668,384.573 L243.712,355.529 L321.83,410.672 C321.902,410.723 321.976,410.773 322.05,410.822 C323.097,411.52 328.706,415.002 336.347,415.002 C342.39,415.002 353.699,412.66 361.541,396.974 C371.774,376.508 423.837,153.158 429.739,127.759 C429.912,127.017 429.999,126.257 429.999,125.495 C430,107.948 415.881,95.214 396.428,95.214 Z M343.653,388.028 C342.063,391.209 339.505,395 336.347,395 C334.964,395 333.614,394.42 333.076,394.127 L248.363,334.33 C244.386,331.523 238.967,331.987 235.525,335.429 L200.525,370.429 C194.995,375.959 191.783,376.389 190.929,376.389 C188.945,376.389 187.253,374.101 186.677,373.223 L151.98,279.043 C150.673,275.498 147.478,272.991 143.725,272.564 C129.161,270.905 88.343,263.674 74.545,250.309 C69.256,245.198 68.997,242.265 69.044,241.487 C69.101,240.55 69.706,239.722 70.182,239.209 L385.883,116.945 C389.646,115.796 393.192,115.214 396.426,115.214 C399.496,115.214 409.271,115.903 409.96,124.511 C386.977,223.366 350.572,374.19 343.653,388.028 Z" id="Shape" fill="#231F20"></path>
                    <path d="M365.016,136.824 L165.016,251.829 C160.771,254.27 158.918,259.425 160.637,264.009 L190.637,344.009 C192.014,347.682 195.411,350.21 199.325,350.475 C199.553,350.491 199.778,350.498 200.003,350.498 C203.662,350.498 207.054,348.492 208.806,345.239 L243.065,281.616 L376.938,152.696 C380.577,149.193 381.031,143.526 377.998,139.487 C374.963,135.449 369.393,134.308 365.016,136.824 Z M228.064,268.295 C227.318,269.014 226.687,269.845 226.196,270.757 L201.633,316.373 L182.344,264.936 L304.485,194.702 L228.064,268.295 Z" id="Shape" fill="#231F20"></path>
                </g>
            </g>
        </g>
    </g>
</svg>