<svg xmlns="http://www.w3.org/2000/svg" width="55.076" height="66.774" viewBox="0 0 55.076 66.774">
  <g id="Group_59" data-name="Group 59" transform="translate(-724.232 -963.096)">
    <path id="Path_374" data-name="Path 374" d="M9.5,0A9.5,9.5,0,1,1,0,9.5,9.5,9.5,0,0,1,9.5,0Z" transform="matrix(0.966, 0.259, -0.259, 0.966, 760.956, 975.759)" fill="#b7bbff"/>
    <path id="Path_375" data-name="Path 375" d="M7.5,0A7.5,7.5,0,1,1,0,7.5,7.5,7.5,0,0,1,7.5,0Z" transform="matrix(0.966, 0.259, -0.259, 0.966, 751.38, 1011.498)" fill="#b7ffdd"/>
    <path id="Path_376" data-name="Path 376" d="M9.5,0A9.5,9.5,0,1,1,0,9.5,9.5,9.5,0,0,1,9.5,0Z" transform="matrix(0.966, 0.259, -0.259, 0.966, 729.15, 963.096)" fill="#fab7ff"/>
    <path id="Path_377" data-name="Path 377" d="M3,0A3,3,0,1,1,0,3,3,3,0,0,1,3,0Z" transform="matrix(0.966, 0.259, -0.259, 0.966, 742.188, 995.576)" fill="#ffe0b7"/>
  </g>
</svg>
