<?xml version="1.0" encoding="UTF-8"?>
<svg width="505px" height="505px" viewBox="0 0 505 505" version="1.1" xmlns="http://www.w3.org/2000/svg" xmlns:xlink="http://www.w3.org/1999/xlink">
    <!-- Generator: Sketch 50 (54983) - http://www.bohemiancoding.com/sketch -->
    <title>checked</title>
    <desc>Created with Sketch.</desc>
    <defs></defs>
    <g id="Page-1" stroke="none" stroke-width="1" fill="none" fill-rule="evenodd">
        <g id="checked" fill-rule="nonzero">
            <circle id="Oval" fill="#6B6DEC" cx="252.06" cy="252.06" r="252.06"></circle>
            <path d="M463.163,114.609 L240.246,345.403 L240.64,370.215 L250.88,370.215 L492.308,175.655 C485.218,153.994 475.372,133.12 463.163,114.609 Z" id="Shape" fill="#5759D7"></path>
            <path d="M499.397,103.582 L454.892,59.471 C448.984,53.563 439.138,53.563 432.837,59.471 L242.609,256 L160.295,174.868 C154.387,168.96 144.541,168.96 138.24,174.868 L98.855,213.859 C92.947,219.767 92.947,229.613 98.855,235.521 L230.4,365.883 C233.945,369.428 238.671,370.609 243.397,370.215 C248.123,370.609 252.849,369.427 256.394,365.883 L499.397,125.637 C505.305,119.335 505.305,109.489 499.397,103.582 Z" id="Shape" fill="#F2F1EF"></path>
            <path d="M256.394,365.883 L499.397,125.637 C505.305,119.729 505.305,109.883 499.397,103.975 L492.308,97.28 L243.003,342.252 L105.157,207.951 L99.249,213.859 C93.341,219.767 93.341,229.613 99.249,235.521 L230.794,365.884 C234.339,369.429 239.065,370.61 243.791,370.216 C248.123,370.609 252.849,369.428 256.394,365.883 Z" id="Shape" fill="#E6E5E3"></path>
        </g>
    </g>
</svg>