<svg id="clean" xmlns="http://www.w3.org/2000/svg" xmlns:xlink="http://www.w3.org/1999/xlink" width="21.424" height="22.065" viewBox="0 0 21.424 22.065">
  <defs>
    <linearGradient id="linear-gradient" x1="0.5" y1="1" x2="0.5" gradientUnits="objectBoundingBox">
      <stop offset="0" stop-color="#9ceeff"/>
      <stop offset="1" stop-color="#6454f0"/>
    </linearGradient>
    <linearGradient id="linear-gradient-2" y1="0" y2="1" xlink:href="#linear-gradient"/>
  </defs>
  <path id="Union_21" data-name="Union 21" d="M4.708.369A4.266,4.266,0,0,1,.369,5.049.376.376,0,0,0,0,5.417a.391.391,0,0,0,.312.369H.4a4.266,4.266,0,0,1,4.339,4.68.369.369,0,1,0,.737,0,4.286,4.286,0,0,1,4.339-4.68H9.9a.307.307,0,0,0,.256-.369.376.376,0,0,0-.37-.369A4.266,4.266,0,0,1,5.445.369a.369.369,0,1,0-.737,0Zm9.387,4.084c0,6.5-5.558,6.721-6.211,6.721H7.856a.385.385,0,0,0-.312.2.42.42,0,0,0,0,.369.222.222,0,0,0,.114.114.326.326,0,0,0,.226.085c.625,0,6.211.227,6.24,6.721a.369.369,0,1,0,.737,0c0-6.494,5.586-6.721,6.182-6.721a.466.466,0,0,0,.312-.2.347.347,0,0,0,.029-.369.436.436,0,0,0-.341-.2c-.624,0-6.211-.226-6.211-6.721a.369.369,0,1,0-.737,0ZM6.948,13.585a3.359,3.359,0,0,1-3.4,3.686.376.376,0,0,0-.369.369.369.369,0,0,0,.341.369h.028a3.369,3.369,0,0,1,3.4,3.688.369.369,0,1,0,.737,0,3.36,3.36,0,0,1,3.4-3.688.369.369,0,0,0,0-.737H11.06a3.366,3.366,0,0,1-3.4-3.686.372.372,0,0,0-.341-.369A.376.376,0,0,0,6.948,13.585ZM5.219,17.64A3.612,3.612,0,0,0,7.26,15.626,3.807,3.807,0,0,0,9.3,17.64,3.811,3.811,0,0,0,7.26,19.654,3.81,3.81,0,0,0,5.219,17.64Z" transform="translate(21.424 22.065) rotate(180)" fill="url(#linear-gradient)"/>
  <path id="Path_193" data-name="Path 193" d="M115.721,51.6a8.1,8.1,0,0,0,.737-3.6c0,6.948,6.211,7.09,6.608,7.09a7.523,7.523,0,0,0-3.063.737A6.076,6.076,0,0,1,115.721,51.6Z" transform="translate(-109.527 -44.597)" fill="url(#linear-gradient-2)"/>
  <path id="Path_195" data-name="Path 195" d="M9.721,166.008a5.626,5.626,0,0,0,.652-2.808,4.692,4.692,0,0,0,4.708,5.077,5.414,5.414,0,0,0-2.467.681A4.394,4.394,0,0,1,9.721,166.008Z" transform="translate(5.974 -151.629)" fill="url(#linear-gradient-2)"/>
  <path id="Path_196" data-name="Path 196" d="M61.265,9.256a3.743,3.743,0,0,0-3.772,4.056,3.743,3.743,0,0,0-3.772-4.056A3.743,3.743,0,0,0,57.493,5.2,3.766,3.766,0,0,0,61.265,9.256Z" transform="translate(-43.329 -4.831)" fill="url(#linear-gradient-2)"/>
  <path id="Path_197" data-name="Path 197" d="M54.121,7.582a4.338,4.338,0,0,0,.6-2.382,3.75,3.75,0,0,0,3.772,4.056,4.315,4.315,0,0,0-2.1.624A3.493,3.493,0,0,1,54.121,7.582Z" transform="translate(-40.581 -4.831)" fill="url(#linear-gradient-2)"/>
</svg>
