<svg xmlns="http://www.w3.org/2000/svg" xmlns:xlink="http://www.w3.org/1999/xlink" width="51.398" height="51.398" viewBox="0 0 51.398 51.398">
  <defs>
    <linearGradient id="linear-gradient" x1="0.5" x2="0.5" y2="1" gradientUnits="objectBoundingBox">
      <stop offset="0" stop-color="#00ffed"/>
      <stop offset="1" stop-color="#00c2a8"/>
    </linearGradient>
    <clipPath id="clip-path">
      <circle id="Ellipse_101" data-name="Ellipse 101" cx="25.699" cy="25.699" r="25.699" transform="translate(0 0)" stroke="#707070" stroke-width="1" fill="url(#linear-gradient)"/>
    </clipPath>
    <linearGradient id="linear-gradient-2" x1="0.5" x2="0.5" y2="1" gradientUnits="objectBoundingBox">
      <stop offset="0" stop-color="#9ceeff"/>
      <stop offset="1" stop-color="#6454f0"/>
    </linearGradient>
  </defs>
  <g id="Group_175" data-name="Group 175" transform="translate(-356.947 -468.947)">
    <circle id="Ellipse_112" data-name="Ellipse 112" cx="25.5" cy="25.5" r="25.5" transform="translate(357 469)" fill="#f2fffe"/>
    <g id="Mask_Group_16" data-name="Mask Group 16" transform="translate(356.947 468.947)" clip-path="url(#clip-path)">
      <path id="Path_304" data-name="Path 304" d="M984.208,998.809s5.544,2.384,13.357-1.851,10.874,4.765,18.192,4.765,6.954-4.036,12.476-4.765a15.65,15.65,0,0,1,9.617,1.851l.794,26.985H986.184Z" transform="translate(-987.226 -974.395)" fill="url(#linear-gradient-2)"/>
    </g>
    <g id="Path_382" data-name="Path 382" transform="translate(373.172 507.2)" fill="#0c2a57">
      <path d="M 9.467998504638672 1.503999471664429 C 7.330318927764893 1.503999471664429 5.386778831481934 1.004209518432617 3.691378831863403 0.01850947365164757 C 1.952188849449158 -0.9926505088806152 0.6761288046836853 -2.497690439224243 -0.10135118663311 -4.454810619354248 L -0.4206611812114716 -5.258590698242188 L 0.3286988139152527 -5.690430641174316 L 4.576698780059814 -8.138430595397949 L 5.64966869354248 -8.756750106811523 L 6.028148651123047 -7.577630519866943 C 6.514668941497803 -6.061940670013428 7.607698917388916 -5.356000423431396 9.467998504638672 -5.356000423431396 C 10.48701858520508 -5.356000423431396 11.26624870300293 -5.582950592041016 11.78404903411865 -6.030530452728271 C 12.27249908447266 -6.452760696411133 12.49999904632568 -7.00739049911499 12.49999904632568 -7.776000499725342 C 12.49999904632568 -8.52401065826416 12.27019882202148 -9.074930191040039 11.77679920196533 -9.509790420532227 C 11.26016902923584 -9.965130805969238 10.48337841033936 -10.19600009918213 9.467998504638672 -10.19600009918213 L 8.387998580932617 -10.19600009918213 L 7.850958824157715 -10.19600009918213 L 7.554348945617676 -10.64371013641357 L 5.64634895324707 -13.52371025085449 L 5.25239896774292 -14.11835098266602 L 5.686388969421387 -14.68443012237549 L 9.421258926391602 -19.55599975585938 L 1.583998799324036 -19.55599975585938 L 0.5839987993240356 -19.55599975585938 L 0.5839987993240356 -20.55599975585938 L 0.5839987993240356 -25.20000076293945 L 0.5839987993240356 -26.20000076293945 L 1.583998799324036 -26.20000076293945 L 17.42399787902832 -26.20000076293945 L 18.42399787902832 -26.20000076293945 L 18.42399787902832 -25.20000076293945 L 18.42399787902832 -21.09600067138672 L 18.42399787902832 -20.75539970397949 L 18.21609878540039 -20.48561096191406 L 14.32933044433594 -15.44171237945557 C 15.62612438201904 -14.86021137237549 16.7320442199707 -14.03460693359375 17.62882804870605 -12.97659015655518 C 18.84921836853027 -11.53682041168213 19.46799850463867 -9.787090301513672 19.46799850463867 -7.776000499725342 C 19.46799850463867 -4.887230396270752 18.47002792358398 -2.582830429077148 16.50180816650391 -0.9268205165863037 C 14.58475875854492 0.6861594915390015 12.21823883056641 1.503999471664429 9.467998504638672 1.503999471664429 Z" stroke="none"/>
      <path d="M 1.583999633789063 -25.20000076293945 L 1.583999633789063 -20.55599975585938 L 11.44799995422363 -20.55599975585938 L 6.479999542236328 -14.07600021362305 L 8.387999534606934 -11.19600009918213 L 9.467999458312988 -11.19600009918213 C 10.73999977111816 -11.19600009918213 11.72999954223633 -10.88400077819824 12.4379997253418 -10.26000022888184 C 13.14599990844727 -9.636000633239746 13.5 -8.808000564575195 13.5 -7.7760009765625 C 13.5 -6.720001220703125 13.14599990844727 -5.88599967956543 12.4379997253418 -5.27400016784668 C 11.72999954223633 -4.66200065612793 10.73999977111816 -4.356000900268555 9.467999458312988 -4.356000900268555 C 7.163999557495117 -4.356000900268555 5.699999809265137 -5.328001022338867 5.076000213623047 -7.272001266479492 L 0.8279991149902344 -4.824001312255859 C 1.52400016784668 -3.072000503540039 2.645999908447266 -1.746000289916992 4.193999290466309 -0.8460006713867188 C 5.741999626159668 0.05399894714355469 7.5 0.5039997100830078 9.467999458312988 0.5039997100830078 C 11.98799991607666 0.5039997100830078 14.11800003051758 -0.2280006408691406 15.85799980163574 -1.692001342773438 C 17.59799957275391 -3.156000137329102 18.4680004119873 -5.184000015258789 18.4680004119873 -7.7760009765625 C 18.4680004119873 -9.552000999450684 17.93400001525879 -11.07000064849854 16.86599922180176 -12.33000087738037 C 15.79800033569336 -13.59000015258789 14.41199970245361 -14.47200012207031 12.70800018310547 -14.97600078582764 L 17.42399978637695 -21.09600067138672 L 17.42399978637695 -25.20000076293945 L 1.583999633789063 -25.20000076293945 M -0.4160003662109375 -27.20000076293945 L 1.583999633789063 -27.20000076293945 L 17.42399978637695 -27.20000076293945 L 19.42399978637695 -27.20000076293945 L 19.42399978637695 -25.20000076293945 L 19.42399978637695 -21.09600067138672 L 19.42399978637695 -20.41481018066406 L 19.00820922851563 -19.87523078918457 L 15.85013294219971 -15.77696228027344 C 16.81435012817383 -15.20109748840332 17.66415214538574 -14.48149490356445 18.39167022705078 -13.62319087982178 C 19.7694206237793 -11.9977502822876 20.4680004119873 -10.0304708480835 20.4680004119873 -7.7760009765625 C 20.4680004119873 -4.578350067138672 19.35018920898438 -2.016510009765625 17.14562034606934 -0.1616306304931641 C 15.04337978363037 1.607149124145508 12.46024990081787 2.503999710083008 9.467999458312988 2.503999710083008 C 7.151450157165527 2.503999710083008 5.038800239562988 1.958620071411133 3.188758850097656 0.8830089569091797 C 1.251150131225586 -0.243499755859375 -0.1684799194335938 -1.915189743041992 -1.03070068359375 -4.085611343383789 L -1.669330596923828 -5.693180084228516 L -0.1706008911132813 -6.556859970092773 L 4.077400207519531 -9.004860877990723 L 6.223340034484863 -10.24150085449219 L 6.980299949645996 -7.883260726928711 C 7.27455997467041 -6.966541290283203 7.810219764709473 -6.356000900268555 9.467999458312988 -6.356000900268555 C 10.23997974395752 -6.356000900268555 10.79918956756592 -6.501029968261719 11.13008975982666 -6.787071228027344 C 11.31300926208496 -6.945180892944336 11.5 -7.186321258544922 11.5 -7.7760009765625 C 11.5 -8.342670440673828 11.31525039672852 -8.583620071411133 11.11559963226318 -8.759580612182617 C 10.78703022003174 -9.04917049407959 10.23269939422607 -9.196000099182129 9.467999458312988 -9.196000099182129 L 8.387999534606934 -9.196000099182129 L 7.313909530639648 -9.196000099182129 L 6.720699310302734 -10.09141063690186 L 4.812699317932129 -12.97141075134277 L 4.024799346923828 -14.16070079803467 L 4.892789840698242 -15.29286098480225 L 7.394530296325684 -18.55599975585938 L 1.583999633789063 -18.55599975585938 L -0.4160003662109375 -18.55599975585938 L -0.4160003662109375 -20.55599975585938 L -0.4160003662109375 -25.20000076293945 L -0.4160003662109375 -27.20000076293945 Z" stroke="none" fill="#fff"/>
    </g>
  </g>
</svg>
