<svg xmlns="http://www.w3.org/2000/svg" xmlns:xlink="http://www.w3.org/1999/xlink" width="51.398" height="51.398" viewBox="0 0 51.398 51.398">
  <defs>
    <linearGradient id="linear-gradient" x1="0.5" x2="0.5" y2="1" gradientUnits="objectBoundingBox">
      <stop offset="0" stop-color="#00ffed"/>
      <stop offset="1" stop-color="#00c2a8"/>
    </linearGradient>
    <clipPath id="clip-path">
      <circle id="Ellipse_101" data-name="Ellipse 101" cx="25.699" cy="25.699" r="25.699" transform="translate(0 0)" stroke="#707070" stroke-width="1" fill="url(#linear-gradient)"/>
    </clipPath>
    <linearGradient id="linear-gradient-2" x1="0.5" x2="0.5" y2="1" gradientUnits="objectBoundingBox">
      <stop offset="0" stop-color="#9ceeff"/>
      <stop offset="1" stop-color="#6454f0"/>
    </linearGradient>
  </defs>
  <g id="Group_150" data-name="Group 150" transform="translate(-356.947 -468.947)">
    <circle id="Ellipse_112" data-name="Ellipse 112" cx="25.5" cy="25.5" r="25.5" transform="translate(357 469)" fill="#f2fffe"/>
    <g id="Mask_Group_16" data-name="Mask Group 16" transform="translate(356.947 468.947)" clip-path="url(#clip-path)">
      <path id="Path_304" data-name="Path 304" d="M985,999.931s5.544,2.384,13.357-1.851,10.874,4.765,18.192,4.765,6.954-4.036,12.478-4.765a15.649,15.649,0,0,1,9.617,1.851v25.862H986.184Z" transform="translate(-987.226 -969.395)" fill="url(#linear-gradient-2)"/>
    </g>
    <g id="Path_381" data-name="Path 381" transform="translate(373 507)" fill="#0c2a57">
      <path d="M 18.32500076293945 0.9999982118606567 L 17.32500076293945 0.9999982118606567 L 0.9450005888938904 0.9999982118606567 L -0.05499938875436783 0.9999982118606567 L -0.05499938875436783 -1.792907710296276e-06 L -0.05499938875436783 -3.60500168800354 L -0.05499938875436783 -4.010781764984131 L 0.2277606129646301 -4.301831722259521 L 8.589080810546875 -12.90804481506348 C 10.67268371582031 -15.09664344787598 11.11000061035156 -16.40367889404297 11.11000061035156 -17.1150016784668 C 11.11000061035156 -17.79798126220703 10.91617107391357 -18.32001113891602 10.51743030548096 -18.7109317779541 C 10.11311054229736 -19.1073112487793 9.592230796813965 -19.30000114440918 8.925000190734863 -19.30000114440918 C 7.474380493164063 -19.30000114440918 6.461470603942871 -18.57219123840332 5.737310409545898 -17.00954246520996 L 5.274290561676025 -16.01040267944336 L 4.324280738830566 -16.56730270385742 L 0.2642806172370911 -18.94730186462402 L -0.5158293843269348 -19.40461158752441 L -0.1390593945980072 -20.22665214538574 C 0.7115206122398376 -22.08249092102051 1.960250616073608 -23.52449226379395 3.572440624237061 -24.51260185241699 C 5.171920776367188 -25.4929313659668 6.949230670928955 -25.9900016784668 8.855000495910645 -25.9900016784668 C 11.31062030792236 -25.9900016784668 13.45161056518555 -25.20610237121582 15.2185001373291 -23.66008186340332 C 17.02436065673828 -22.07995223999023 17.94000053405762 -19.93675231933594 17.94000053405762 -17.29000091552734 C 17.93556976318359 -14.48686218261719 16.48456001281738 -11.61659145355225 13.62727069854736 -8.757351875305176 L 10.52703666687012 -5.655001640319824 L 17.32500076293945 -5.655001640319824 L 18.32500076293945 -5.655001640319824 L 18.32500076293945 -4.655001640319824 L 18.32500076293945 -1.792907710296276e-06 L 18.32500076293945 0.9999982118606567 Z" stroke="none"/>
      <path d="M 17.32500076293945 -1.792907710296276e-06 L 17.32500076293945 -4.655001640319824 L 8.113980293273926 -4.655001640319824 L 12.91992092132568 -9.464221954345703 C 15.59596061706543 -12.14208221435547 16.93599128723145 -14.75068187713623 16.94000053405762 -17.29000091552734 C 16.94000053405762 -19.64667129516602 16.14667129516602 -21.51916122436523 14.5600004196167 -22.90750122070313 C 12.9733304977417 -24.29583168029785 11.07167053222656 -24.9900016784668 8.855000495910645 -24.9900016784668 C 7.128330707550049 -24.9900016784668 5.541670799255371 -24.54667091369629 4.095000743865967 -23.66000175476074 C 2.648330688476563 -22.7733325958252 1.540000557899475 -21.4900016784668 0.7700006365776062 -19.81000137329102 L 4.830000400543213 -17.43000221252441 C 5.716670513153076 -19.34333229064941 7.081670761108398 -20.30000114440918 8.925000190734863 -20.30000114440918 C 9.858330726623535 -20.30000114440918 10.6225004196167 -20.00833129882813 11.21750068664551 -19.42500114440918 C 11.81250095367432 -18.84167098999023 12.11000061035156 -18.0716609954834 12.11000061035156 -17.1150016784668 C 12.11000061035156 -15.80833148956299 11.17667102813721 -14.1750020980835 9.310000419616699 -12.21500205993652 L 0.9450005888938904 -3.60500168800354 L 0.9450005888938904 -1.792907710296276e-06 L 17.32500076293945 -1.792907710296276e-06 M 19.32500076293945 1.999998211860657 L 17.32500076293945 1.999998211860657 L 0.9450005888938904 1.999998211860657 L -1.054999351501465 1.999998211860657 L -1.054999351501465 -1.792907710296276e-06 L -1.054999351501465 -3.60500168800354 L -1.054999351501465 -4.416571617126465 L -0.4894793927669525 -4.998661994934082 L 7.869087219238281 -13.60204029083252 C 9.948352813720703 -15.78732681274414 10.11000061035156 -16.84319686889648 10.11000061035156 -17.1150016784668 C 10.11000061035156 -17.70995140075684 9.90493106842041 -17.91100120544434 9.817360877990723 -17.99685096740723 C 9.664460182189941 -18.14676094055176 9.438860893249512 -18.30000114440918 8.925000190734863 -18.30000114440918 C 8.189440727233887 -18.30000114440918 7.34329080581665 -18.09673118591309 6.644620418548584 -16.58907127380371 L 5.718580722808838 -14.59080219268799 L 3.818560600280762 -15.70460224151611 L -0.2414393872022629 -18.08460235595703 L -1.801669359207153 -18.99922180175781 L -1.048129439353943 -20.64331245422363 C -0.1133493930101395 -22.68283271789551 1.26542055606842 -24.2715015411377 3.049870729446411 -25.36520195007324 C 4.808940410614014 -26.4433422088623 6.762060642242432 -26.9900016784668 8.855000495910645 -26.9900016784668 C 11.55994033813477 -26.9900016784668 13.92248058319092 -26.12286186218262 15.87701034545898 -24.41266250610352 C 17.90946006774902 -22.63425254821777 18.94000053405762 -20.23785209655762 18.94000053405762 -17.29000091552734 C 18.93514060974121 -14.21117210388184 17.38566970825195 -11.10361194610596 14.33461093902588 -8.050491333007813 L 12.9400749206543 -6.655001640319824 L 17.32500076293945 -6.655001640319824 L 19.32500076293945 -6.655001640319824 L 19.32500076293945 -4.655001640319824 L 19.32500076293945 -1.792907710296276e-06 L 19.32500076293945 1.999998211860657 Z" stroke="none" fill="#fff"/>
    </g>
  </g>
</svg>
