<svg xmlns="http://www.w3.org/2000/svg" xmlns:xlink="http://www.w3.org/1999/xlink" width="41.828" height="41.827" viewBox="0 0 41.828 41.827">
  <defs>
    <linearGradient id="linear-gradient" x1="0.5" x2="0.5" y2="1" gradientUnits="objectBoundingBox">
      <stop offset="0" stop-color="#00ffed"/>
      <stop offset="1" stop-color="#00c2a8"/>
    </linearGradient>
    <clipPath id="clip-path">
      <circle id="Ellipse_121" data-name="Ellipse 121" cx="18.894" cy="18.894" r="18.894" transform="translate(0 0)" stroke="#707070" stroke-width="1" fill="url(#linear-gradient)"/>
    </clipPath>
    <linearGradient id="linear-gradient-3" x1="0.5" x2="0.5" y2="1" gradientUnits="objectBoundingBox">
      <stop offset="0" stop-color="#9ceeff"/>
      <stop offset="1" stop-color="#6454f0"/>
    </linearGradient>
  </defs>
  <g id="Group_145" data-name="Group 145" transform="translate(-1466.234 -254)">
    <g id="Path_371" data-name="Path 371" transform="translate(1466.234 254)" fill="#d1fbf8">
      <path d="M 20.91363906860352 40.82727813720703 C 18.22487831115723 40.82727813720703 15.61706924438477 40.30091094970703 13.16265869140625 39.26277923583984 C 10.79147911071777 38.25984954833984 8.661728858947754 36.82386779785156 6.832569122314453 34.99470901489258 C 5.003408908843994 33.16555023193359 3.567429065704346 31.03579902648926 2.564499139785767 28.66461944580078 C 1.526369094848633 26.21020889282227 0.9999990463256836 23.6023998260498 0.9999990463256836 20.91363906860352 C 0.9999990463256836 18.22487831115723 1.526369094848633 15.61706924438477 2.564499139785767 13.16265869140625 C 3.567429065704346 10.79147911071777 5.003408908843994 8.661728858947754 6.832569122314453 6.832569122314453 C 8.661728858947754 5.003408908843994 10.79147911071777 3.567429065704346 13.16265869140625 2.564499139785767 C 15.61706924438477 1.526369094848633 18.22487831115723 0.9999990463256836 20.91363906860352 0.9999990463256836 C 23.6023998260498 0.9999990463256836 26.21020889282227 1.526369094848633 28.66461944580078 2.564499139785767 C 31.03579902648926 3.567429065704346 33.16555023193359 5.003408908843994 34.99470901489258 6.832569122314453 C 36.82386779785156 8.661728858947754 38.25984954833984 10.79147911071777 39.26277923583984 13.16265869140625 C 40.30091094970703 15.61706924438477 40.82727813720703 18.22487831115723 40.82727813720703 20.91363906860352 C 40.82727813720703 23.6023998260498 40.30091094970703 26.21020889282227 39.26277923583984 28.66461944580078 C 38.25984954833984 31.03579902648926 36.82386779785156 33.16555023193359 34.99470901489258 34.99470901489258 C 33.16555023193359 36.82386779785156 31.03579902648926 38.25984954833984 28.66461944580078 39.26277923583984 C 26.21020889282227 40.30091094970703 23.6023998260498 40.82727813720703 20.91363906860352 40.82727813720703 Z" stroke="none"/>
      <path d="M 20.91363906860352 2 C 15.86162948608398 2 11.11198997497559 3.967357635498047 7.539680480957031 7.539680480957031 C 3.967357635498047 11.11198997497559 2 15.86162948608398 2 20.91363906860352 C 2 25.96564865112305 3.967357635498047 30.71529006958008 7.539680480957031 34.28759765625 C 11.11198997497559 37.85992050170898 15.86162948608398 39.82727813720703 20.91363906860352 39.82727813720703 C 25.96564865112305 39.82727813720703 30.71529006958008 37.85992050170898 34.28759765625 34.28759765625 C 37.85992050170898 30.71529006958008 39.82727813720703 25.96564865112305 39.82727813720703 20.91363906860352 C 39.82727813720703 15.86162948608398 37.85992050170898 11.11198997497559 34.28759765625 7.539680480957031 C 30.71529006958008 3.967357635498047 25.96564865112305 2 20.91363906860352 2 M 20.91363906860352 0 C 32.46392059326172 0 41.82727813720703 9.363357543945313 41.82727813720703 20.91363906860352 C 41.82727813720703 32.46392059326172 32.46392059326172 41.82727813720703 20.91363906860352 41.82727813720703 C 9.363357543945313 41.82727813720703 0 32.46392059326172 0 20.91363906860352 C 0 9.363357543945313 9.363357543945313 0 20.91363906860352 0 Z" stroke="none" fill="#fff"/>
    </g>
    <g id="Mask_Group_24" data-name="Mask Group 24" transform="translate(1468 256)" clip-path="url(#clip-path)">
      <path id="Path_376" data-name="Path 376" d="M986.151,986.653s4.076,1.807,9.82-1.4,7.995,3.611,13.374,3.611,5.113-3.059,9.173-3.611a11.233,11.233,0,0,1,7.07,1.4l-1.188,31.969H985.834Z" transform="translate(-985.696 -977.479)" fill="#aaf3ed"/>
    </g>
    <g id="trophy" transform="translate(1478.668 266)">
      <path id="Path_377" data-name="Path 377" d="M16.339,1.215h-2.16q.012-.359.012-.722A.493.493,0,0,0,13.7,0H3.134a.493.493,0,0,0-.493.493q0,.363.012.722H.493A.493.493,0,0,0,0,1.708a10.688,10.688,0,0,0,1.626,5.87,5.145,5.145,0,0,0,3.908,2.538,5.064,5.064,0,0,0,1.068.9V13.2H5.775a1.816,1.816,0,0,0-1.814,1.814v.827H3.926a.493.493,0,1,0,0,.986h8.979a.493.493,0,1,0,0-.986H12.87v-.827A1.816,1.816,0,0,0,11.057,13.2h-.827V11.013a5.063,5.063,0,0,0,1.068-.9,5.145,5.145,0,0,0,3.908-2.538,10.688,10.688,0,0,0,1.626-5.87A.493.493,0,0,0,16.339,1.215ZM2.447,7.032A9.5,9.5,0,0,1,1,2.2H2.708A16.479,16.479,0,0,0,4.24,8.183q.2.394.412.745A4.756,4.756,0,0,1,2.447,7.032Zm11.938,0a4.756,4.756,0,0,1-2.2,1.9q.214-.351.412-.745A16.481,16.481,0,0,0,14.124,2.2h1.712A9.5,9.5,0,0,1,14.385,7.032Zm0,0" fill="#fff"/>
    </g>
    <g id="Path_371-2" data-name="Path 371" transform="translate(1466.234 254)" fill="#d1fbf8">
      <path d="M 20.91363906860352 40.82727813720703 C 18.22487831115723 40.82727813720703 15.61706924438477 40.30091094970703 13.16265869140625 39.26277923583984 C 10.79147911071777 38.25984954833984 8.661728858947754 36.82386779785156 6.832569122314453 34.99470901489258 C 5.003408908843994 33.16555023193359 3.567429065704346 31.03579902648926 2.564499139785767 28.66461944580078 C 1.526369094848633 26.21020889282227 0.9999990463256836 23.6023998260498 0.9999990463256836 20.91363906860352 C 0.9999990463256836 18.22487831115723 1.526369094848633 15.61706924438477 2.564499139785767 13.16265869140625 C 3.567429065704346 10.79147911071777 5.003408908843994 8.661728858947754 6.832569122314453 6.832569122314453 C 8.661728858947754 5.003408908843994 10.79147911071777 3.567429065704346 13.16265869140625 2.564499139785767 C 15.61706924438477 1.526369094848633 18.22487831115723 0.9999990463256836 20.91363906860352 0.9999990463256836 C 23.6023998260498 0.9999990463256836 26.21020889282227 1.526369094848633 28.66461944580078 2.564499139785767 C 31.03579902648926 3.567429065704346 33.16555023193359 5.003408908843994 34.99470901489258 6.832569122314453 C 36.82386779785156 8.661728858947754 38.25984954833984 10.79147911071777 39.26277923583984 13.16265869140625 C 40.30091094970703 15.61706924438477 40.82727813720703 18.22487831115723 40.82727813720703 20.91363906860352 C 40.82727813720703 23.6023998260498 40.30091094970703 26.21020889282227 39.26277923583984 28.66461944580078 C 38.25984954833984 31.03579902648926 36.82386779785156 33.16555023193359 34.99470901489258 34.99470901489258 C 33.16555023193359 36.82386779785156 31.03579902648926 38.25984954833984 28.66461944580078 39.26277923583984 C 26.21020889282227 40.30091094970703 23.6023998260498 40.82727813720703 20.91363906860352 40.82727813720703 Z" stroke="none"/>
      <path d="M 20.91363906860352 2 C 15.86162948608398 2 11.11198997497559 3.967357635498047 7.539680480957031 7.539680480957031 C 3.967357635498047 11.11198997497559 2 15.86162948608398 2 20.91363906860352 C 2 25.96564865112305 3.967357635498047 30.71529006958008 7.539680480957031 34.28759765625 C 11.11198997497559 37.85992050170898 15.86162948608398 39.82727813720703 20.91363906860352 39.82727813720703 C 25.96564865112305 39.82727813720703 30.71529006958008 37.85992050170898 34.28759765625 34.28759765625 C 37.85992050170898 30.71529006958008 39.82727813720703 25.96564865112305 39.82727813720703 20.91363906860352 C 39.82727813720703 15.86162948608398 37.85992050170898 11.11198997497559 34.28759765625 7.539680480957031 C 30.71529006958008 3.967357635498047 25.96564865112305 2 20.91363906860352 2 M 20.91363906860352 0 C 32.46392059326172 0 41.82727813720703 9.363357543945313 41.82727813720703 20.91363906860352 C 41.82727813720703 32.46392059326172 32.46392059326172 41.82727813720703 20.91363906860352 41.82727813720703 C 9.363357543945313 41.82727813720703 0 32.46392059326172 0 20.91363906860352 C 0 9.363357543945313 9.363357543945313 0 20.91363906860352 0 Z" stroke="none" fill="#fff"/>
    </g>
    <g id="Mask_Group_24-2" data-name="Mask Group 24" transform="translate(1468 256)" clip-path="url(#clip-path)">
      <path id="Path_376-2" data-name="Path 376" d="M986.151,987.587s4.076,2.553,9.82-1.982,7.995,5.1,13.374,5.1,5.113-4.322,9.173-5.1a8.8,8.8,0,0,1,7.07,1.982l-1.188,45.173H985.834Z" transform="translate(-985.696 -991.617)" fill="url(#linear-gradient-3)"/>
    </g>
    <g id="trophy-2" data-name="trophy" transform="translate(1478.668 266)">
      <path id="Path_377-2" data-name="Path 377" d="M16.339,1.215h-2.16q.012-.359.012-.722A.493.493,0,0,0,13.7,0H3.134a.493.493,0,0,0-.493.493q0,.363.012.722H.493A.493.493,0,0,0,0,1.708a10.688,10.688,0,0,0,1.626,5.87,5.145,5.145,0,0,0,3.908,2.538,5.064,5.064,0,0,0,1.068.9V13.2H5.775a1.816,1.816,0,0,0-1.814,1.814v.827H3.926a.493.493,0,1,0,0,.986h8.979a.493.493,0,1,0,0-.986H12.87v-.827A1.816,1.816,0,0,0,11.057,13.2h-.827V11.013a5.063,5.063,0,0,0,1.068-.9,5.145,5.145,0,0,0,3.908-2.538,10.688,10.688,0,0,0,1.626-5.87A.493.493,0,0,0,16.339,1.215ZM2.447,7.032A9.5,9.5,0,0,1,1,2.2H2.708A16.479,16.479,0,0,0,4.24,8.183q.2.394.412.745A4.756,4.756,0,0,1,2.447,7.032Zm11.938,0a4.756,4.756,0,0,1-2.2,1.9q.214-.351.412-.745A16.481,16.481,0,0,0,14.124,2.2h1.712A9.5,9.5,0,0,1,14.385,7.032Zm0,0" fill="#fff"/>
    </g>
  </g>
</svg>
