<?xml version="1.0" encoding="UTF-8"?>
<svg width="368px" height="438px" viewBox="0 0 368 438" version="1.1" xmlns="http://www.w3.org/2000/svg" xmlns:xlink="http://www.w3.org/1999/xlink">
    <!-- Generator: Sketch 50 (54983) - http://www.bohemiancoding.com/sketch -->
    <title>support</title>
    <desc>Created with Sketch.</desc>
    <defs></defs>
    <g id="Page-1" stroke="none" stroke-width="1" fill="none" fill-rule="evenodd">
        <g id="support" fill="#98C5B9" fill-rule="nonzero">
            <path d="M229.6,300.4 L137.6,300.4 C62,300.4 0.4,362 0.4,437.6 L367.2,437.6 C366.8,362.4 305.2,300.4 229.6,300.4 Z" id="Shape"></path>
            <path d="M200,237.6 C207.2,237.6 214,240 219.2,244.4 L252.4,244.4 C268.8,227.2 278.8,204.4 278.8,178.8 C278.8,126 236,83.6 183.6,83.6 C131.2,83.6 88.4,126 88.4,178.8 C88.4,214.4 108,245.6 137.2,262 C140.4,248 152.8,237.6 167.2,237.6 L200,237.6 Z" id="Shape"></path>
            <path d="M42.8,186.8 C44,196.8 48.8,206 55.6,212.8 C60.8,218 67.6,222 75.2,224.4 C74.8,222.8 74.8,221.2 74.8,220 L74.8,142.4 C74.8,140.8 74.8,139.2 75.2,137.6 C67.6,139.6 61.2,143.6 55.6,149.2 C55.2,149.6 54.4,150.4 54,150.8 L54,147.6 C54,140 54.8,132.4 56,125.2 C57.2,117.6 59.2,110.4 62,103.6 C64.4,96.4 67.6,89.6 71.6,83.2 C75.2,76.8 79.6,70.4 84.4,64.8 C84.8,64.4 85.2,63.6 85.2,63.2 C88.8,63.6 92.4,62.4 94.8,60 C119.2,35.6 151.2,23.6 182.8,23.6 C214.4,23.6 246.8,35.6 270.8,60 C273.6,62.8 277.2,63.6 280.4,63.2 C280.8,63.6 280.8,64.4 281.2,64.8 C286,70.4 290.4,76.8 294,83.2 C297.6,89.6 300.8,96.4 303.6,103.6 C306,110.8 308,118 309.6,125.6 C310.8,132.8 311.6,140.4 311.6,148 L311.6,151.2 C311.2,150.4 310.4,150 310,149.6 C304.8,144.4 298,140.4 290.4,138 C290.8,139.6 290.8,141.2 290.8,142.8 L290.8,220 C290.8,221.6 290.8,223.2 290.4,224.4 C292.4,224 294.4,223.2 296.4,222.4 L296.4,247.6 C296.4,250.4 296,253.2 295.6,255.2 C295.2,257.2 294.4,258.4 293.6,259.6 C292.8,260.4 291.6,261.2 290.4,261.6 C288.8,262 287.2,262.4 285.2,262.4 L284.8,262.4 L211.2,262.4 C208.8,258.4 204.8,255.6 199.6,255.6 L166.8,255.6 C159.6,255.6 154,261.6 154,268.4 C154.4,275.6 160,281.2 167.2,281.2 L200,281.2 C204.8,281.2 209.2,278.4 211.6,274.4 L286,274.4 L288.8,274.4 C291.6,274.4 294,273.6 296.4,272.8 C299.6,271.6 302,270 304.4,267.6 C306.4,265.2 308,262.4 309.2,258.8 C310,255.6 310.8,251.6 310.8,247.2 L310.8,215.2 L310.8,214 C311.2,213.6 311.6,213.2 312,212.8 C318.8,206 323.6,196.8 324.8,186.8 C325.2,186.4 325.6,186.4 325.6,186 C326.8,184.8 327.6,182.8 327.6,181.2 L327.6,148 C327.6,139.6 326.8,131.2 325.6,123.2 C323.2,114.8 321.2,106.8 318.4,98.8 C315.6,90.8 312,83.2 307.6,76 C303.6,68.8 298.8,62 293.2,55.6 C292.8,54.8 292,54.4 291.2,54 C292,50.4 290.8,46 288,43.2 C259.2,14.4 221.6,0 183.6,0 C145.6,0 108,14.4 78.8,43.2 C76,46 74.8,50.4 75.6,54 C74.8,54.4 74.4,54.8 73.6,55.6 C68,62 63.2,68.8 59.2,76 C55.2,83.2 51.6,90.8 48.4,98.8 C45.6,106.8 43.2,114.8 42,123.2 C40.4,131.2 40,139.6 40,148 L40,181.2 C40,183.2 40.8,184.8 42,186 C42.4,186.4 42.8,186.4 42.8,186.8 Z" id="Shape"></path>
        </g>
    </g>
</svg>