<svg height="391.739" viewBox="0 0 391.736 391.739" width="391.736" xmlns="http://www.w3.org/2000/svg" xmlns:xlink="http://www.w3.org/1999/xlink"><linearGradient id="a" gradientUnits="objectBoundingBox" x1=".057" x2=".82" y1=".438" y2=".893"><stop offset="0" stop-color="#fff"/><stop offset="1" stop-color="#94fef7"/></linearGradient><path d="m119.627 376.346a196.511 196.511 0 1 1 76.241 15.393 195.874 195.874 0 0 1 -76.241-15.393zm-90.427-179.26c0 92.574 75.315 167.889 167.889 167.889 75.656 0 139.786-50.311 160.7-119.228h-.388a29.476 29.476 0 0 1 -29.476-29.475v-40.807a29.477 29.477 0 0 1 29.105-29.473c-21.673-67.666-85.181-116.792-159.944-116.792-92.574 0-167.886 75.312-167.886 167.886z" fill="url(#a)"/></svg>