<svg xmlns="http://www.w3.org/2000/svg" width="55.334" height="55.335" viewBox="0 0 55.334 55.335">
  <g id="budget" transform="translate(0.299 0.3)">
    <g id="Group_33" data-name="Group 33" transform="translate(17.334 26.455)">
      <g id="Group_32" data-name="Group 32">
        <path id="Path_349" data-name="Path 349" d="M156.944,239.679l-2.011-.669a1.619,1.619,0,0,1-1.107-1.537,1.824,1.824,0,1,1,3.649,0H159.3a3.649,3.649,0,0,0-2.737-3.519V232h-1.825v1.954A3.649,3.649,0,0,0,152,237.474a3.441,3.441,0,0,0,2.355,3.268l2.012.669a1.619,1.619,0,0,1,1.107,1.537,1.824,1.824,0,1,1-3.649,0H152a3.649,3.649,0,0,0,2.737,3.519v1.954h1.825v-1.954a3.649,3.649,0,0,0,2.737-3.519A3.441,3.441,0,0,0,156.944,239.679Z" transform="translate(-152.001 -232)" fill="#6e70f2" stroke="#6e70f2" stroke-width="0.6"/>
      </g>
    </g>
    <g id="Group_35" data-name="Group 35" transform="translate(0.001)">
      <g id="Group_34" data-name="Group 34" transform="translate(0)">
        <path id="Path_350" data-name="Path 350" d="M53.824,20.069H35.382a21.007,21.007,0,0,0-7.1-5.643V10.491l3.284-2.463a.912.912,0,0,0,.365-.73V.912A.912.912,0,0,0,31.017,0H27.368a.912.912,0,0,0-.645.267l-1.18,1.18L24.364.267A.912.912,0,0,0,23.719,0H18.246A.912.912,0,0,0,17.6.267l-1.18,1.18L15.242.267A.912.912,0,0,0,14.6,0H10.948a.912.912,0,0,0-.912.912V7.3a.912.912,0,0,0,.365.73l3.284,2.463v3.945C6.779,17.777,0,26.753,0,38.264,0,48.731,7.648,54.735,20.983,54.735a35.223,35.223,0,0,0,6.454-.573.912.912,0,0,0,.844.573H53.824a.912.912,0,0,0,.912-.912V20.982A.912.912,0,0,0,53.824,20.069ZM11.86,6.842V1.824h2.359l1.557,1.557a.912.912,0,0,0,1.29,0l1.557-1.557h4.718L24.9,3.382a.912.912,0,0,0,1.29,0l1.557-1.557h2.359V6.842L27.065,9.122H14.9Zm14.6,4.105v2.737H15.509V10.947Zm.912,31.448a10.035,10.035,0,1,1,0-15.458V42.395Zm0-21.413v3.7a11.859,11.859,0,1,0,0,19.965v7.672a33.22,33.22,0,0,1-6.386.591c-5.76,0-19.157-1.427-19.157-14.646,0-8.727,5.231-19.587,13.988-22.756H26.158a17.972,17.972,0,0,1,6.781,4.561H28.281A.912.912,0,0,0,27.368,20.982ZM52.911,52.91H29.193V29.192H52.911Zm0-25.543H29.193V21.894H52.911Z" transform="translate(-0.001)" fill="#6e70f2" stroke="#6e70f2" stroke-width="0.6"/>
      </g>
    </g>
    <g id="Group_37" data-name="Group 37" transform="translate(31.017 31.016)">
      <g id="Group_36" data-name="Group 36">
        <path id="Path_351" data-name="Path 351" d="M276.562,272h-3.649a.912.912,0,0,0-.912.912v3.649a.912.912,0,0,0,.912.912h3.649a.912.912,0,0,0,.912-.912v-3.649A.912.912,0,0,0,276.562,272Zm-.912,3.649h-1.824v-1.824h1.824Z" transform="translate(-272.001 -272)" fill="#6e70f2" stroke="#6e70f2" stroke-width="0.6"/>
      </g>
    </g>
    <g id="Group_39" data-name="Group 39" transform="translate(38.315 31.016)">
      <g id="Group_38" data-name="Group 38">
        <path id="Path_352" data-name="Path 352" d="M340.562,272h-3.649a.912.912,0,0,0-.912.912v3.649a.912.912,0,0,0,.912.912h3.649a.912.912,0,0,0,.912-.912v-3.649A.912.912,0,0,0,340.562,272Zm-.912,3.649h-1.824v-1.824h1.824Z" transform="translate(-336.001 -272)" fill="#6e70f2" stroke="#6e70f2" stroke-width="0.6"/>
      </g>
    </g>
    <g id="Group_41" data-name="Group 41" transform="translate(45.613 31.016)">
      <g id="Group_40" data-name="Group 40">
        <path id="Path_353" data-name="Path 353" d="M404.562,272h-3.649a.912.912,0,0,0-.912.912v3.649a.912.912,0,0,0,.912.912h3.649a.912.912,0,0,0,.912-.912v-3.649A.912.912,0,0,0,404.562,272Zm-.912,3.649h-1.825v-1.824h1.825Z" transform="translate(-400.001 -272)" fill="#6e70f2" stroke="#6e70f2" stroke-width="0.6"/>
      </g>
    </g>
    <g id="Group_43" data-name="Group 43" transform="translate(31.017 38.314)">
      <g id="Group_42" data-name="Group 42">
        <path id="Path_354" data-name="Path 354" d="M276.562,336h-3.649a.912.912,0,0,0-.912.912v3.649a.912.912,0,0,0,.912.912h3.649a.912.912,0,0,0,.912-.912v-3.649A.912.912,0,0,0,276.562,336Zm-.912,3.649h-1.824v-1.824h1.824Z" transform="translate(-272.001 -336)" fill="#6e70f2" stroke="#6e70f2" stroke-width="0.6"/>
      </g>
    </g>
    <g id="Group_45" data-name="Group 45" transform="translate(38.315 38.314)">
      <g id="Group_44" data-name="Group 44">
        <path id="Path_355" data-name="Path 355" d="M340.562,336h-3.649a.912.912,0,0,0-.912.912v3.649a.912.912,0,0,0,.912.912h3.649a.912.912,0,0,0,.912-.912v-3.649A.912.912,0,0,0,340.562,336Zm-.912,3.649h-1.824v-1.824h1.824Z" transform="translate(-336.001 -336)" fill="#6e70f2" stroke="#6e70f2" stroke-width="0.6"/>
      </g>
    </g>
    <g id="Group_47" data-name="Group 47" transform="translate(31.017 45.612)">
      <g id="Group_46" data-name="Group 46">
        <path id="Path_356" data-name="Path 356" d="M276.562,400h-3.649a.912.912,0,0,0-.912.912v3.649a.912.912,0,0,0,.912.912h3.649a.912.912,0,0,0,.912-.912v-3.649A.912.912,0,0,0,276.562,400Zm-.912,3.649h-1.824v-1.824h1.824Z" transform="translate(-272.001 -400)" fill="#6e70f2" stroke="#6e70f2" stroke-width="0.6"/>
      </g>
    </g>
    <g id="Group_49" data-name="Group 49" transform="translate(38.315 45.612)">
      <g id="Group_48" data-name="Group 48">
        <path id="Path_357" data-name="Path 357" d="M340.562,400h-3.649a.912.912,0,0,0-.912.912v3.649a.912.912,0,0,0,.912.912h3.649a.912.912,0,0,0,.912-.912v-3.649A.912.912,0,0,0,340.562,400Zm-.912,3.649h-1.824v-1.824h1.824Z" transform="translate(-336.001 -400)" fill="#6e70f2" stroke="#6e70f2" stroke-width="0.6"/>
      </g>
    </g>
    <g id="Group_51" data-name="Group 51" transform="translate(45.613 38.314)">
      <g id="Group_50" data-name="Group 50">
        <path id="Path_358" data-name="Path 358" d="M404.562,336h-3.649a.912.912,0,0,0-.912.912v10.947a.912.912,0,0,0,.912.912h3.649a.912.912,0,0,0,.912-.912V336.912A.912.912,0,0,0,404.562,336Zm-.912,10.947h-1.825v-9.122h1.825Z" transform="translate(-400.001 -336)" fill="#6e70f2" stroke="#6e70f2" stroke-width="0.6"/>
      </g>
    </g>
    <g id="Group_53" data-name="Group 53" transform="translate(49.262 23.718)">
      <g id="Group_52" data-name="Group 52">
        <rect id="Rectangle_98" data-name="Rectangle 98" width="1.824" height="1.824" fill="#6e70f2" stroke="#6e70f2" stroke-width="0.6"/>
      </g>
    </g>
    <g id="Group_55" data-name="Group 55" transform="translate(45.613 23.718)">
      <g id="Group_54" data-name="Group 54">
        <rect id="Rectangle_99" data-name="Rectangle 99" width="1.824" height="1.824" fill="#6e70f2" stroke="#6e70f2" stroke-width="0.6"/>
      </g>
    </g>
    <g id="Group_57" data-name="Group 57" transform="translate(41.964 23.718)">
      <g id="Group_56" data-name="Group 56">
        <rect id="Rectangle_100" data-name="Rectangle 100" width="1.824" height="1.824" fill="#6e70f2" stroke="#6e70f2" stroke-width="0.6"/>
      </g>
    </g>
  </g>
</svg>
