<svg xmlns="http://www.w3.org/2000/svg" width="35" height="35" viewBox="0 0 35 35">
  <g id="accept_circle" data-name="accept circle" transform="translate(-771 -659)">
    <g id="Ellipse_122" data-name="Ellipse 122" transform="translate(771 659)" fill="#6e70f2" stroke="#6e70f2" stroke-width="1">
      <circle cx="17.5" cy="17.5" r="17.5" stroke="none"/>
      <circle cx="17.5" cy="17.5" r="17" fill="none"/>
    </g>
    <path id="accept" d="M18.4,8.912c-.868-.468-1.837.434-2.4.969-1.3,1.269-2.4,2.739-3.641,4.075-1.369,1.47-2.639,2.939-4.042,4.376A12.051,12.051,0,0,0,6.113,21a43.843,43.843,0,0,0-3.574-3.474c-.969-.735-2.572-1.269-2.538.5.067,2.3,2.1,4.776,3.607,6.346a3.815,3.815,0,0,0,2.438,1.4c1.169.067,2.371-1.336,3.073-2.1,1.236-1.336,2.238-2.839,3.373-4.209,1.47-1.8,2.973-3.574,4.409-5.411C17.8,12.92,20.643,10.114,18.4,8.912ZM1.47,17.9a.253.253,0,0,0-.134.033A1.626,1.626,0,0,1,.969,17.8h0Q1.12,17.7,1.47,17.9Z" transform="translate(779 659.219)" fill="#fff"/>
  </g>
</svg>
