<svg id="cloud-computing_3_" data-name="cloud-computing (3)" xmlns="http://www.w3.org/2000/svg" width="29.988" height="26.776" viewBox="0 0 29.988 26.776">
  <path id="Path_344" data-name="Path 344" d="M27.882,34.347,25.426,36.8V27.071a1.071,1.071,0,1,0-2.142,0V36.8l-2.456-2.456a1.071,1.071,0,0,0-1.514,1.514L23.6,40.145a1.047,1.047,0,0,0,.164.134c.025.017.053.028.079.043a.98.98,0,0,0,.1.055,1.075,1.075,0,0,0,.107.033.918.918,0,0,0,.093.027,1.1,1.1,0,0,0,.209.021,1.07,1.07,0,0,0,.21-.021c.032-.006.062-.018.093-.027a1.076,1.076,0,0,0,.107-.033.979.979,0,0,0,.1-.055.873.873,0,0,0,.079-.043,1.1,1.1,0,0,0,.164-.134L29.4,35.86a1.071,1.071,0,1,0-1.515-1.514Z" transform="translate(-8.825 -13.683)" fill="#2bccff"/>
  <path id="Path_345" data-name="Path 345" d="M25.617,11.561a9.838,9.838,0,0,0-2.508,0,.526.526,0,0,1-.081.006.536.536,0,0,1-.08-1.065,10.229,10.229,0,0,1,2.187-.066A8.084,8.084,0,0,0,17.182,3,8.483,8.483,0,0,0,10.6,6.282a4.809,4.809,0,0,1,1.714,3.68.536.536,0,1,1-1.071,0A3.742,3.742,0,0,0,9.151,6.6c-.037-.018-.074-.037-.112-.054a3.648,3.648,0,0,0-.447-.172l-.057-.014a3.765,3.765,0,0,0-.423-.095l-.125-.019A3.825,3.825,0,0,0,7.5,6.213,3.753,3.753,0,0,0,3.749,9.962c0,.044,0,.087.006.131l.006.112,0,.086c0,.07-.008.139-.008.207v.337l-.3.145A6.366,6.366,0,0,0,0,16.47a5.814,5.814,0,0,0,5.808,5.808h7.58V16.388a2.142,2.142,0,0,1,4.284,0v5.891h1.26c.032,0,.062,0,.093,0l.106-.006.145.006c.031,0,.061,0,.093,0h5.25a5.377,5.377,0,0,0,5.37-5.37A5.49,5.49,0,0,0,25.617,11.561Z" transform="translate(0 -3)" fill="#2bccff"/>
</svg>
