<svg id="danger" xmlns="http://www.w3.org/2000/svg" width="29.373" height="24.972" viewBox="0 0 29.373 24.972">
  <g id="Group_31" data-name="Group 31">
    <path id="Path_348" data-name="Path 348" d="M29.115,60.608,16.228,39.235a1.8,1.8,0,0,0-3.083,0L.259,60.608A1.8,1.8,0,0,0,1.8,63.337H27.574a1.8,1.8,0,0,0,1.541-2.729ZM14.7,45.758a1.22,1.22,0,0,1,1.366,1.158c0,2.258-.266,5.5-.266,7.762,0,.588-.645.835-1.1.835-.607,0-1.12-.247-1.12-.835,0-2.258-.266-5.5-.266-7.762C13.311,46.175,13.918,45.758,14.7,45.758Zm.019,13.986a1.461,1.461,0,1,1,1.442-1.461A1.483,1.483,0,0,1,14.715,59.744Z" transform="translate(0 -38.365)" fill="#ffabab"/>
  </g>
</svg>
