<svg xmlns="http://www.w3.org/2000/svg" xmlns:xlink="http://www.w3.org/1999/xlink" width="51.398" height="51.398" viewBox="0 0 51.398 51.398">
  <defs>
    <linearGradient id="linear-gradient" x1="0.5" x2="0.5" y2="1" gradientUnits="objectBoundingBox">
      <stop offset="0" stop-color="#00ffed"/>
      <stop offset="1" stop-color="#00c2a8"/>
    </linearGradient>
    <clipPath id="clip-path">
      <circle id="Ellipse_101" data-name="Ellipse 101" cx="25.699" cy="25.699" r="25.699" transform="translate(0 0)" stroke="#707070" stroke-width="1" fill="url(#linear-gradient)"/>
    </clipPath>
    <linearGradient id="linear-gradient-2" x1="0.5" x2="0.5" y2="1" gradientUnits="objectBoundingBox">
      <stop offset="0" stop-color="#9ceeff"/>
      <stop offset="1" stop-color="#6454f0"/>
    </linearGradient>
  </defs>
  <g id="Group_148" data-name="Group 148" transform="translate(-356.947 -468.947)">
    <circle id="Ellipse_112" data-name="Ellipse 112" cx="25.5" cy="25.5" r="25.5" transform="translate(357 469)" fill="#f2fffe"/>
    <g id="Mask_Group_16" data-name="Mask Group 16" transform="translate(356.947 468.947)" clip-path="url(#clip-path)">
      <path id="Path_304" data-name="Path 304" d="M985,999.931s5.544,2.384,13.357-1.851,10.874,4.765,18.192,4.765,6.954-4.036,12.478-4.765a15.649,15.649,0,0,1,9.617,1.851v25.862H986.184Z" transform="translate(-987.226 -960.395)" fill="url(#linear-gradient-2)"/>
    </g>
    <g id="Path_363" data-name="Path 363" transform="translate(382 508)" fill="#0c2a57">
      <path d="M 5.738500118255615 0.9999994039535522 L 4.738500118255615 0.9999994039535522 L -0.6434998512268066 0.9999994039535522 L -1.643499851226807 0.9999994039535522 L -1.643499851226807 -5.722046125811175e-07 L -1.643499851226807 -20.28715324401855 L -5.521599769592285 -19.20011138916016 L -6.477530002593994 -18.93216133117676 L -6.752409934997559 -19.88613128662109 L -8.078410148620605 -24.48813056945801 L -8.339400291442871 -25.39391136169434 L -7.450589656829834 -25.70790100097656 L -0.274589866399765 -28.24290084838867 L -0.1129398569464684 -28.30000114440918 L 0.05850014463067055 -28.30000114440918 L 4.738500118255615 -28.30000114440918 L 5.738500118255615 -28.30000114440918 L 5.738500118255615 -27.30000114440918 L 5.738500118255615 -5.722046125811175e-07 L 5.738500118255615 0.9999994039535522 Z" stroke="none"/>
      <path d="M 0.05850005149841309 -27.30000114440918 L -7.117499828338623 -24.76500129699707 L -5.791500091552734 -20.16300010681152 L -0.6434998512268066 -21.60600090026855 L -0.6434998512268066 0 L 4.738500118255615 0 L 4.738500118255615 -27.30000114440918 L 0.05850005149841309 -27.30000114440918 M -0.2843799591064453 -29.30000114440918 L 0.05850005149841309 -29.30000114440918 L 4.738500118255615 -29.30000114440918 L 6.738500595092773 -29.30000114440918 L 6.738500595092773 -27.30000114440918 L 6.738500595092773 0 L 6.738500595092773 2 L 4.738500118255615 2 L -0.6434998512268066 2 L -2.643499851226807 2 L -2.643499851226807 0 L -2.643499851226807 -18.96830749511719 L -5.251699924468994 -18.23722076416016 L -7.163569927215576 -17.70132064819336 L -7.713309764862061 -19.60926055908203 L -9.039310455322266 -24.21125984191895 L -9.56128978729248 -26.02283096313477 L -7.783679962158203 -26.65079116821289 L -0.6076798439025879 -29.185791015625 L -0.2843799591064453 -29.30000114440918 Z" stroke="none" fill="#f2fffe"/>
    </g>
  </g>
</svg>
