<svg height="37.564" viewBox="0 0 37.564 37.564" width="37.564" xmlns="http://www.w3.org/2000/svg" xmlns:xlink="http://www.w3.org/1999/xlink"><linearGradient id="a" gradientUnits="objectBoundingBox" x1=".332" x2=".585" y1=".141" y2=".682"><stop offset="0" stop-color="#00c3ff"/><stop offset="1" stop-color="#00b0ed"/></linearGradient><linearGradient id="b" gradientUnits="objectBoundingBox" x1=".738" x2="-.899" y1=".628" y2="-.25"><stop offset="0" stop-color="#00b0ed" stop-opacity="0"/><stop offset="1" stop-color="#00a2ce"/></linearGradient><linearGradient id="c" x1=".5" x2=".5" xlink:href="#b" y1=".27" y2=".926"/><linearGradient id="d" x1=".946" x2=".342" xlink:href="#b" y1=".922" y2=".273"/><path d="m30.845 36.92a113.459 113.459 0 0 1 -24.126 0 6.84 6.84 0 0 1 -6.076-6.076 113.457 113.457 0 0 1 0-24.126 6.84 6.84 0 0 1 6.076-6.075 113.457 113.457 0 0 1 24.126 0 6.84 6.84 0 0 1 6.076 6.076 113.457 113.457 0 0 1 0 24.126 6.84 6.84 0 0 1 -6.076 6.076zm0 0" fill="url(#a)"/><path d="m61.6 34.8a6.069 6.069 0 0 0 -5.4-5.4 100.718 100.718 0 0 0 -21.409 0 6.07 6.07 0 0 0 -5.391 5.4 100.715 100.715 0 0 0 0 21.409 6.07 6.07 0 0 0 5.4 5.391 100.677 100.677 0 0 0 21.409 0 6.069 6.069 0 0 0 5.391-5.4 100.677 100.677 0 0 0 0-21.409zm0 0" fill="url(#b)" transform="translate(-26.719 -26.719)"/><path d="m7.672 409.8q.039.389.08.779a6.84 6.84 0 0 0 6.076 6.076 113.456 113.456 0 0 0 24.126 0 6.84 6.84 0 0 0 6.076-6.076q.042-.39.081-.779zm0 0" fill="url(#c)" transform="translate(-7.109 -379.739)"/><path d="m127.737 134.863-7.8-7.8a9.3 9.3 0 0 1 -2.224.93 6.358 6.358 0 0 1 -.784.161 4.842 4.842 0 0 0 -8.308 3.381c0 .1 0 .192.009.287a4.669 4.669 0 0 0 .088.681 13.263 13.263 0 0 1 -8.2-3.281l-1.632-1.632s-1.914 3.341.9 5.877a5.371 5.371 0 0 0 .408.408l.036.039a4.743 4.743 0 0 1 -2.124-.59 4.7 4.7 0 0 0 1.572 3.546l1.374 1.386a2.673 2.673 0 0 1 -1.2-.115 4.627 4.627 0 0 0 1.386 2.178l1.925 1.935a9.964 9.964 0 0 1 -5.837 1.3l11.674 11.411a113.581 113.581 0 0 0 12.029-.643 6.84 6.84 0 0 0 6.076-6.076 113.633 113.633 0 0 0 .635-13.383zm0 0" fill="url(#d)" transform="translate(-90.181 -117.401)"/><path d="m120.6 128.945a8.757 8.757 0 0 1 -2.5.694l-.01-.058a4.648 4.648 0 0 0 1.843-2.516 9.305 9.305 0 0 1 -2.224.93 6.413 6.413 0 0 1 -.784.161 4.842 4.842 0 0 0 -8.308 3.381c0 .1 0 .192.009.287a4.668 4.668 0 0 0 .088.681 13.533 13.533 0 0 1 -9.837-4.913 4.789 4.789 0 0 0 1.468 6.33 5.049 5.049 0 0 1 -2.248-.6 4.843 4.843 0 0 0 3.945 4.771 4.581 4.581 0 0 1 -2.2.046 4.67 4.67 0 0 0 4.4 3.349 9.647 9.647 0 0 1 -6.93 2.063 13.683 13.683 0 0 0 20.988-11.563q0-.141 0-.283c0-.056 0-.111 0-.168 0-.039 0-.079 0-.118a8.561 8.561 0 0 0 2.3-2.474zm0 0" fill="#fff" transform="translate(-90.177 -117.4)"/></svg>