<svg xmlns="http://www.w3.org/2000/svg" xmlns:xlink="http://www.w3.org/1999/xlink" width="117.85" height="117.852" viewBox="0 0 117.85 117.852">
  <defs>
    <clipPath id="clip-path">
      <path id="Path_1" data-name="Path 1" d="M61.965,76.989c21.024-13.8,54.5-20.86,54.5,11.3A58.23,58.23,0,1,1,0,88.289C0,56.13,40.941,90.793,61.965,76.989Z" transform="translate(-13777.637 -2318.024)" fill="#fff"/>
    </clipPath>
  </defs>
  <g id="Group_375" data-name="Group 375" transform="translate(13779.025 2288.83)">
    <path id="Path_3" data-name="Path 3" d="M58.925,0A58.926,58.926,0,1,1,0,58.926,58.925,58.925,0,0,1,58.925,0Z" transform="translate(-13779.025 -2288.83)" fill="#ddfefc"/>
    <g id="Mask_Group_73" data-name="Mask Group 73" clip-path="url(#clip-path)">
      <g id="japan" transform="translate(-13777.637 -2270.311)">
        <path id="Path_1167" data-name="Path 1167" d="M114.452,96.381H2.008A2.008,2.008,0,0,1,0,94.373V22.087a2.008,2.008,0,0,1,2.008-2.008H114.452a2.008,2.008,0,0,1,2.008,2.008V94.373A2.008,2.008,0,0,1,114.452,96.381Z" fill="#f5f5f5"/>
        <circle id="Ellipse_270" data-name="Ellipse 270" cx="22.086" cy="22.086" r="22.086" transform="translate(36.144 40.144)" fill="#ff4b55"/>
      </g>
    </g>
  </g>
</svg>
